<?xml version="1.0" encoding="UTF-8"?>
<!-- Generator: visioncortex VTracer 0.6.12 -->
<svg version="1.1" xmlns="http://www.w3.org/2000/svg" width="32" height="32" viewBox="0 0 364 364">
<path d="M0 0 C9.355 4.816 9.355 4.816 13.5 6 C17.31 7.089 20.469 8.687 23.977 10.5 C27.706 12.35 31.496 14.026 35.312 15.688 C35.994 15.985 36.676 16.282 37.379 16.589 C40.139 17.786 42.903 18.962 45.703 20.062 C48.039 21.016 50.211 22.128 52.438 23.312 C58.737 26.515 65.317 28.737 72 31 C72 31.66 72 32.32 72 33 C72.413 33.031 72.413 33.031 74.5 33.188 C79.014 34.235 82.44 36.033 86 39 C87.812 42.125 87.812 42.125 89 45 C89.516 45.495 90.031 45.99 90.562 46.5 C94.723 50.842 94.277 57.153 94.227 62.759 C94.227 63.618 94.228 64.478 94.228 65.363 C94.227 68.187 94.211 71.012 94.195 73.836 C94.192 75.8 94.189 77.765 94.187 79.729 C94.179 84.888 94.159 90.047 94.137 95.205 C94.117 100.474 94.108 105.743 94.098 111.012 C94.076 121.341 94.042 131.671 94 142 C93.34 142 92.68 142 92 142 C91.567 143.134 91.134 144.269 90.688 145.438 C87.725 151.384 82.561 155.519 77 159 C73.648 159.754 73.648 159.754 71 160 C71 160.66 71 161.32 71 162 C69.948 162.516 68.896 163.031 67.812 163.562 C63.929 165.508 60.085 167.522 56.25 169.562 C55.162 170.141 54.074 170.72 52.953 171.316 C50.457 172.74 48.285 174.275 46 176 C44.014 176.706 42.012 177.369 40 178 C32.443 181.023 25.248 184.826 18.008 188.531 C14.05 190.464 9.988 192.078 5.902 193.719 C3.104 194.954 0.612 196.418 -2 198 C-3.255 198.519 -4.526 199.002 -5.812 199.438 C-17.292 203.584 -17.292 203.584 -19 207 C-20.982 207.495 -22.965 207.986 -24.957 208.438 C-27.621 209.171 -29.646 210.565 -32 212 C-33.304 212.441 -34.618 212.855 -35.938 213.25 C-41.466 214.994 -46.495 217.667 -51.637 220.297 C-55.698 222.353 -59.822 224.198 -64 226 C-65.355 226.603 -66.709 227.207 -68.062 227.812 C-72.41 229.745 -76.767 231.655 -81.125 233.562 C-81.794 233.856 -82.463 234.149 -83.153 234.45 C-84.463 235.023 -85.774 235.595 -87.086 236.164 C-88.355 236.718 -89.619 237.282 -90.878 237.856 C-98.9 241.456 -106.457 241.259 -115 240 C-116.217 239.897 -117.434 239.794 -118.688 239.688 C-122.602 238.875 -124.713 237.256 -128 235 C-130.532 233.905 -133.095 232.925 -135.672 231.941 C-138.3 230.879 -140.603 229.507 -143 228 C-144.657 227.31 -146.326 226.647 -148 226 C-157.585 222.008 -166.807 217.172 -176.043 212.441 C-180.319 210.262 -184.428 208.489 -189 207 C-190.672 206.01 -192.338 205.008 -194 204 C-196.464 202.638 -198.95 201.319 -201.438 200 C-201.759 199.829 -201.759 199.829 -203.385 198.961 C-213.967 193.331 -213.967 193.331 -218.312 191.938 C-221 191 -221 191 -222 189 C-223.788 188.075 -225.606 187.21 -227.438 186.375 C-235.351 182.47 -242.996 178.426 -246.5 169.938 C-247.043 168.305 -247.54 166.657 -248 165 C-248.339 163.935 -248.678 162.871 -249.028 161.774 C-249.994 158.022 -250.26 154.893 -250.275 151.03 C-250.28 150.372 -250.285 149.714 -250.29 149.036 C-250.304 146.882 -250.303 144.728 -250.301 142.574 C-250.305 141.061 -250.309 139.548 -250.314 138.035 C-250.321 134.87 -250.321 131.706 -250.316 128.541 C-250.31 124.51 -250.327 120.479 -250.35 116.448 C-250.365 113.324 -250.366 110.201 -250.363 107.077 C-250.363 105.592 -250.368 104.107 -250.378 102.622 C-250.461 88.893 -248.918 79.043 -239 69 C-236.489 66.92 -233.918 65.442 -231 64 C-230.463 63.731 -230.463 63.731 -227.746 62.371 C-218.669 58 -218.669 58 -214 58 C-213.835 57.505 -213.835 57.505 -213 55 C-211.128 54.49 -209.25 53.995 -207.354 53.584 C-204.919 52.98 -202.715 52.163 -200.395 51.211 C-199.52 50.854 -198.646 50.498 -197.745 50.13 C-196.839 49.757 -195.933 49.384 -195 49 C-193.211 48.272 -191.422 47.544 -189.633 46.816 C-187.797 46.066 -185.961 45.314 -184.125 44.562 C-183.158 44.167 -182.192 43.772 -181.196 43.364 C-176.267 41.346 -171.346 39.314 -166.438 37.25 C-161.371 35.129 -156.256 33.151 -151.121 31.203 C-147.422 29.777 -143.767 28.255 -140.121 26.699 C-138 26 -138 26 -134 26 C-133.67 24.68 -133.34 23.36 -133 22 C-132.031 22.082 -131.061 22.165 -130.062 22.25 C-126.934 22.248 -124.834 21.631 -122.027 20.273 C-115.248 17.137 -108.203 14.708 -101.18 12.18 C-100.141 11.798 -99.102 11.417 -98.031 11.023 C-97.088 10.682 -96.145 10.341 -95.174 9.99 C-93 9 -93 9 -92 7 C-89.975 6.743 -87.946 6.492 -85.91 6.344 C-84 6 -84 6 -82 4 C-80.355 3.32 -78.683 2.704 -77 2.125 C-73.361 0.852 -69.796 -0.489 -66.25 -2 C-44.603 -10.55 -20.985 -11.034 0 0 Z M67 59 C66.67 59.99 66.34 60.98 66 62 C65.113 62.144 64.226 62.289 63.312 62.438 C60.529 62.91 57.765 63.431 55 64 C55 64.66 55 65.32 55 66 C54.216 66.144 53.433 66.289 52.625 66.438 C50 67 50 67 48 68 C48 68.99 48 69.98 48 71 C47.196 70.918 46.391 70.835 45.562 70.75 C40.135 71.131 35.805 73.597 31 76 C31 76.99 31 77.98 31 79 C30.557 78.969 30.557 78.969 28.312 78.812 C24.583 79.024 23.039 79.921 20 82 C19.629 82.175 19.629 82.175 17.75 83.062 C16 84 16 84 15 86 C13.107 86.44 11.213 86.877 9.316 87.305 C5.978 88.307 3.181 90.001 0.188 91.758 C-2.784 93.445 -5.835 94.72 -9 96 C-9 96.66 -9 97.32 -9 98 C-9.99 98.165 -9.99 98.165 -15 99 C-15.33 99.99 -15.66 100.98 -16 102 C-16.928 102.041 -17.856 102.083 -18.812 102.125 C-23.368 102.787 -26.844 104.937 -30.797 107.199 C-34.374 109.21 -38.011 111.054 -41.688 112.875 C-42.37 113.214 -43.052 113.552 -43.755 113.901 C-45.15 114.593 -46.546 115.285 -47.941 115.977 C-49.912 116.956 -51.879 117.945 -53.844 118.938 C-61.505 122.804 -69.206 126.588 -76.938 130.312 C-77.801 130.733 -78.665 131.154 -79.555 131.587 C-91.53 137.32 -101.699 140.694 -114.938 137.25 C-115.643 137.072 -116.348 136.893 -117.074 136.71 C-120.763 135.735 -124.146 134.633 -127.5 132.812 C-131.576 130.702 -134.468 130.324 -139 130 C-139.33 129.01 -139.66 128.02 -140 127 C-142.34 125.642 -144.621 124.459 -147.062 123.312 C-148.524 122.606 -149.985 121.899 -151.445 121.191 C-152.198 120.831 -152.952 120.47 -153.728 120.098 C-156.632 118.694 -159.511 117.241 -162.389 115.785 C-167.82 113.04 -173.267 110.384 -178.852 107.965 C-181.315 106.859 -183.715 105.656 -186.125 104.438 C-193.27 100.828 -200.499 97.397 -207.727 93.959 C-208.203 93.732 -208.203 93.732 -210.609 92.586 C-211.527 92.15 -212.444 91.713 -213.389 91.264 C-215.784 90.104 -218.151 88.9 -220.516 87.68 C-223.776 86.108 -225.465 85.558 -229 86 C-229 90 -229 90 -226.938 92.188 C-223.553 94.276 -220.932 94.692 -217 95 C-217 95.66 -217 96.32 -217 97 C-216.145 97.248 -215.291 97.495 -214.41 97.75 C-210.712 99.106 -207.749 100.873 -204.438 103 C-200.684 105.405 -197.179 107.452 -193 109 C-191.126 109.921 -189.253 110.844 -187.391 111.789 C-185.572 112.71 -183.748 113.619 -181.922 114.523 C-180.855 115.052 -179.787 115.58 -178.688 116.125 C-177.681 116.623 -176.674 117.12 -175.637 117.633 C-173 119 -173 119 -170 121 C-168.68 121 -167.36 121 -166 121 C-166 121.66 -166 122.32 -166 123 C-161.607 125.021 -157.847 126.409 -153 127 C-153 127.66 -153 128.32 -153 129 C-152.481 129.254 -151.961 129.508 -151.426 129.77 C-148.321 131.302 -145.277 132.832 -142.312 134.625 C-140 136 -140 136 -137.656 136.906 C-134.966 138.014 -132.654 139.337 -130.188 140.875 C-126.476 143.154 -122.765 145.169 -118.789 146.945 C-115.411 148.936 -113.356 151.051 -111.97 154.745 C-110.18 162.877 -109.546 170.607 -109.523 178.922 C-109.508 180.188 -109.492 181.455 -109.476 182.76 C-109.437 186.08 -109.41 189.4 -109.389 192.721 C-109.357 197.437 -109.306 202.153 -109.252 206.868 C-109.225 209.371 -109.204 211.874 -109.189 214.377 C-109.179 215.496 -109.168 216.615 -109.158 217.769 C-109.151 218.757 -109.145 219.746 -109.138 220.765 C-109 223 -109 223 -108 224 C-106.334 224.041 -104.666 224.043 -103 224 C-102.251 219.994 -101.876 216.21 -101.874 212.137 C-101.87 211.006 -101.866 209.874 -101.862 208.708 C-101.861 207.499 -101.86 206.289 -101.859 205.043 C-101.841 202.46 -101.821 199.878 -101.801 197.295 C-101.77 193.24 -101.748 189.185 -101.75 185.13 C-101.75 181.205 -101.712 177.28 -101.672 173.355 C-101.679 172.152 -101.686 170.949 -101.693 169.709 C-101.587 162.296 -100.508 156.998 -96 151 C-93.93 149.02 -93.93 149.02 -91.875 147.812 C-91.488 147.58 -91.488 147.58 -89.531 146.406 C-88.696 145.942 -87.861 145.478 -87 145 C-86.082 144.474 -85.164 143.948 -84.219 143.406 C-79.248 140.62 -74.253 138.212 -69 136 C-63.013 133.123 -57.122 130.094 -51.312 126.875 C-47.307 124.662 -43.263 122.741 -39.062 120.934 C-34.974 119.083 -31.188 116.735 -27.375 114.375 C-25 113 -25 113 -22.75 112.125 C-19.444 110.772 -16.439 109.05 -13.332 107.293 C-11.204 106.113 -9.059 105.01 -6.875 103.938 C2.883 99.117 2.883 99.117 6 96 C7.998 95.326 9.998 94.661 12 94 C14.499 92.87 16.936 91.628 19.375 90.375 C20.016 90.05 20.656 89.725 21.316 89.391 C22.879 88.597 24.44 87.799 26 87 C26 86.34 26 85.68 26 85 C26.418 84.957 26.418 84.957 28.531 84.742 C32.688 83.853 35.825 82.196 39.5 80.125 C40.781 79.419 42.062 78.713 43.344 78.008 C43.654 77.836 43.654 77.836 45.225 76.966 C47.783 75.574 50.391 74.292 53 73 C55.572 71.684 58.131 70.345 60.688 69 C61.019 68.829 61.019 68.829 62.697 67.961 C69.143 64.56 69.143 64.56 71 62 C71 61.01 71 60.02 71 59 C69.68 59 68.36 59 67 59 Z " fill="#F6C11F" transform="translate(260,65)"/>
<path d="M0 0 C3.63 0 7.26 0 11 0 C11.33 1.32 11.66 2.64 12 4 C12.99 4.33 13.98 4.66 15 5 C15 5.99 15 6.98 15 8 C15.572 7.857 16.145 7.714 16.734 7.566 C20.156 6.711 23.578 5.855 27 5 C27.116 15.145 27.205 25.289 27.259 35.435 C27.285 40.146 27.32 44.857 27.377 49.569 C27.432 54.12 27.461 58.672 27.474 63.224 C27.484 64.955 27.502 66.687 27.529 68.418 C27.681 78.541 27.677 86.778 20.509 94.634 C11.86 103.17 -1.196 108.792 -12 114 C-14.441 115.2 -16.877 116.412 -19.312 117.625 C-19.899 117.916 -19.899 117.916 -22.867 119.391 C-25.299 120.64 -27.616 121.939 -29.938 123.375 C-33.49 125.26 -36.029 125.676 -40 126 C-40 126.66 -40 127.32 -40 128 C-40.669 128.268 -41.338 128.536 -42.027 128.812 C-48.354 131.394 -54.57 134.149 -60.75 137.062 C-61.446 137.391 -62.142 137.719 -62.859 138.057 C-66.245 139.663 -69.607 141.305 -72.945 143.008 C-77.248 145.17 -81.669 146.991 -86.125 148.812 C-93.045 151.681 -99.724 154.788 -106.391 158.207 C-114.244 162.176 -122.399 165.552 -130.459 169.075 C-131.261 169.428 -132.064 169.781 -132.891 170.145 C-133.619 170.464 -134.348 170.783 -135.099 171.113 C-137 172 -137 172 -139.438 173.5 C-142.684 175.4 -146.071 176.665 -149.574 178.02 C-152 179 -152 179 -155.25 180.688 C-164.406 185.058 -177.476 184.211 -186.863 180.922 C-190.091 179.53 -192.989 177.818 -196 176 C-197.651 175.32 -199.301 174.641 -200.953 173.965 C-203.564 172.734 -205.97 171.247 -208.438 169.75 C-215.084 165.799 -222.011 162.769 -229.127 159.786 C-231.021 158.991 -232.91 158.183 -234.797 157.371 C-237.517 156.207 -240.247 155.084 -243 154 C-243 153.34 -243 152.68 -243 152 C-243.866 151.918 -244.733 151.835 -245.625 151.75 C-249.545 150.879 -251.675 149.238 -255 147 C-256.466 146.384 -257.947 145.804 -259.438 145.25 C-266.627 142.5 -273.267 138.7 -280 135 C-281.979 133.916 -283.958 132.833 -285.938 131.75 C-286.372 131.511 -286.372 131.511 -288.57 130.301 C-290.792 129.111 -293.036 128.016 -295.312 126.938 C-302.289 123.414 -305.579 119.683 -308.238 112.402 C-309.686 107.835 -310.126 104.002 -310.129 99.168 C-310.131 98.489 -310.133 97.811 -310.135 97.112 C-310.139 94.875 -310.136 92.639 -310.133 90.402 C-310.133 88.846 -310.134 87.289 -310.136 85.733 C-310.137 82.474 -310.135 79.215 -310.13 75.956 C-310.125 71.777 -310.128 67.598 -310.134 63.42 C-310.138 60.207 -310.136 56.994 -310.134 53.782 C-310.133 52.241 -310.134 50.7 -310.136 49.159 C-310.139 47.007 -310.135 44.855 -310.129 42.703 C-310.129 41.478 -310.128 40.253 -310.127 38.991 C-310 36 -310 36 -309 33 C-307.68 33 -306.36 33 -305 33 C-305 33.66 -305 34.32 -305 35 C-304.345 35.075 -303.69 35.15 -303.016 35.227 C-294.128 36.507 -286.975 39.986 -279.344 44.609 C-276.992 46.005 -274.592 47.016 -272.07 48.059 C-269.552 49.204 -267.167 50.529 -264.75 51.875 C-260.292 54.339 -255.786 56.522 -251.137 58.598 C-240.478 63.363 -230.135 68.369 -220.055 74.266 C-216.955 76.025 -213.856 77.484 -210.574 78.859 C-204.268 81.653 -198.154 84.889 -192 88 C-192 88.66 -192 89.32 -192 90 C-191.154 90.206 -190.309 90.412 -189.438 90.625 C-184.065 92.774 -180.365 95.68 -177.417 100.689 C-174.913 106.743 -175.634 113.472 -175.707 119.902 C-175.713 121.35 -175.717 122.797 -175.72 124.244 C-175.731 128.034 -175.761 131.823 -175.794 135.612 C-175.825 139.487 -175.838 143.362 -175.854 147.236 C-175.886 154.824 -175.937 162.412 -176 170 C-175.34 170 -174.68 170 -174 170 C-174 170.66 -174 171.32 -174 172 C-171.03 172 -168.06 172 -165 172 C-164.994 171.216 -164.988 170.432 -164.982 169.624 C-164.924 162.209 -164.852 154.795 -164.764 147.381 C-164.72 143.57 -164.68 139.759 -164.654 135.947 C-164.627 132.264 -164.587 128.581 -164.537 124.899 C-164.52 123.499 -164.509 122.099 -164.502 120.698 C-164.46 112.094 -163.859 105.718 -160 98 C-159.34 98 -158.68 98 -158 98 C-158 97.34 -158 96.68 -158 96 C-134.114 82.213 -134.114 82.213 -128.703 80.105 C-124.59 78.423 -120.73 76.279 -116.812 74.188 C-115.103 73.282 -113.394 72.377 -111.684 71.473 C-110.87 71.042 -110.056 70.612 -109.218 70.168 C-89.914 60 -89.914 60 -86 60 C-86 59.34 -86 58.68 -86 58 C-84.13 57.011 -82.254 56.034 -80.375 55.062 C-79.331 54.517 -78.287 53.972 -77.211 53.41 C-74.076 52.033 -71.385 51.402 -68 51 C-68 50.34 -68 49.68 -68 49 C-65.709 47.769 -63.418 46.54 -61.125 45.312 C-60.445 44.948 -59.765 44.584 -59.064 44.208 C-54.375 41.707 -49.649 39.304 -44.855 37.008 C-43 36 -43 36 -41 34 C-39.107 33.269 -37.212 32.545 -35.301 31.863 C-32.087 30.657 -28.994 29.217 -25.883 27.77 C-24 27 -24 27 -22 27 C-22 26.34 -22 25.68 -22 25 C-20.961 24.481 -19.922 23.961 -18.852 23.426 C-18.18 23.09 -17.509 22.755 -16.818 22.409 C-15.35 21.675 -13.883 20.942 -12.415 20.208 C-9.236 18.62 -6.058 17.029 -2.887 15.426 C-2.037 14.997 -1.188 14.567 -0.312 14.125 C0.413 13.756 1.139 13.388 1.887 13.008 C4.22 11.895 6.591 10.936 9 10 C9.042 7.667 9.041 5.333 9 3 C8 2 8 2 6.152 1.902 C4.102 1.935 2.051 1.967 0 2 C0 1.34 0 0.68 0 0 Z " fill="#CD9C1B" transform="translate(324,120)"/>
<path d="M0 0 C3.63 0 7.26 0 11 0 C11.33 1.32 11.66 2.64 12 4 C12.99 4.33 13.98 4.66 15 5 C15.33 6.65 15.66 8.3 16 10 C6.741 15.268 -2.477 20.42 -12.219 24.75 C-14.737 25.882 -17.178 27.098 -19.625 28.375 C-23 30 -23 30 -26 30 C-26 30.66 -26 31.32 -26 32 C-44.208 41.783 -44.208 41.783 -52 45 C-53.034 45.443 -54.068 45.887 -55.133 46.344 C-63.725 50 -63.725 50 -66 50 C-66 50.99 -66 51.98 -66 53 C-68.766 54.343 -71.539 55.673 -74.312 57 C-75.098 57.382 -75.884 57.763 -76.693 58.156 C-77.072 58.337 -77.072 58.337 -78.988 59.25 C-79.685 59.585 -80.381 59.92 -81.099 60.266 C-83 61 -83 61 -86 61 C-86 61.66 -86 62.32 -86 63 C-87.624 63.812 -89.249 64.624 -90.873 65.437 C-92.317 66.158 -93.76 66.88 -95.203 67.603 C-98.738 69.371 -102.274 71.137 -105.816 72.891 C-113.987 76.941 -122.098 81.101 -130.188 85.312 C-131.18 85.828 -132.173 86.344 -133.196 86.876 C-134.135 87.367 -135.075 87.858 -136.043 88.363 C-136.879 88.799 -137.714 89.235 -138.575 89.685 C-140.269 90.604 -141.939 91.569 -143.587 92.567 C-147.297 94.77 -151.282 96.35 -155.312 97.875 C-157.699 99.466 -158.156 101.328 -159 104 C-159.66 104 -160.32 104 -161 104 C-161.33 129.41 -161.66 154.82 -162 181 C-159.36 180.34 -156.72 179.68 -154 179 C-154.33 179.66 -154.66 180.32 -155 181 C-166.611 184.603 -179.963 184.638 -190.918 179.016 C-192.626 178.035 -194.314 177.018 -196 176 C-197.651 175.32 -199.301 174.641 -200.953 173.965 C-203.564 172.734 -205.97 171.247 -208.438 169.75 C-215.084 165.799 -222.011 162.769 -229.127 159.786 C-231.021 158.991 -232.91 158.183 -234.797 157.371 C-237.517 156.207 -240.247 155.084 -243 154 C-243 153.34 -243 152.68 -243 152 C-243.866 151.918 -244.733 151.835 -245.625 151.75 C-249.545 150.879 -251.675 149.238 -255 147 C-256.466 146.384 -257.947 145.804 -259.438 145.25 C-266.627 142.5 -273.267 138.7 -280 135 C-281.979 133.916 -283.958 132.833 -285.938 131.75 C-286.372 131.511 -286.372 131.511 -288.57 130.301 C-290.792 129.111 -293.036 128.016 -295.312 126.938 C-302.289 123.414 -305.579 119.683 -308.238 112.402 C-309.686 107.835 -310.126 104.002 -310.129 99.168 C-310.131 98.489 -310.133 97.811 -310.135 97.112 C-310.139 94.875 -310.136 92.639 -310.133 90.402 C-310.133 88.846 -310.134 87.289 -310.136 85.733 C-310.137 82.474 -310.135 79.215 -310.13 75.956 C-310.125 71.777 -310.128 67.598 -310.134 63.42 C-310.138 60.207 -310.136 56.994 -310.134 53.782 C-310.133 52.241 -310.134 50.7 -310.136 49.159 C-310.139 47.007 -310.135 44.855 -310.129 42.703 C-310.129 41.478 -310.128 40.253 -310.127 38.991 C-310 36 -310 36 -309 33 C-307.68 33 -306.36 33 -305 33 C-305 33.66 -305 34.32 -305 35 C-304.345 35.075 -303.69 35.15 -303.016 35.227 C-294.128 36.507 -286.975 39.986 -279.344 44.609 C-276.992 46.005 -274.592 47.016 -272.07 48.059 C-269.552 49.204 -267.167 50.529 -264.75 51.875 C-260.292 54.339 -255.786 56.522 -251.137 58.598 C-240.478 63.363 -230.135 68.369 -220.055 74.266 C-216.955 76.025 -213.856 77.484 -210.574 78.859 C-204.268 81.653 -198.154 84.889 -192 88 C-192 88.66 -192 89.32 -192 90 C-191.154 90.206 -190.309 90.412 -189.438 90.625 C-184.065 92.774 -180.365 95.68 -177.417 100.689 C-174.913 106.743 -175.634 113.472 -175.707 119.902 C-175.713 121.35 -175.717 122.797 -175.72 124.244 C-175.731 128.034 -175.761 131.823 -175.794 135.612 C-175.825 139.487 -175.838 143.362 -175.854 147.236 C-175.886 154.824 -175.937 162.412 -176 170 C-175.34 170 -174.68 170 -174 170 C-174 170.66 -174 171.32 -174 172 C-171.03 172 -168.06 172 -165 172 C-164.994 171.216 -164.988 170.432 -164.982 169.624 C-164.924 162.209 -164.852 154.795 -164.764 147.381 C-164.72 143.57 -164.68 139.759 -164.654 135.947 C-164.627 132.264 -164.587 128.581 -164.537 124.899 C-164.52 123.499 -164.509 122.099 -164.502 120.698 C-164.46 112.094 -163.859 105.718 -160 98 C-159.34 98 -158.68 98 -158 98 C-158 97.34 -158 96.68 -158 96 C-134.114 82.213 -134.114 82.213 -128.703 80.105 C-124.59 78.423 -120.73 76.279 -116.812 74.188 C-115.103 73.282 -113.394 72.377 -111.684 71.473 C-110.87 71.042 -110.056 70.612 -109.218 70.168 C-89.914 60 -89.914 60 -86 60 C-86 59.34 -86 58.68 -86 58 C-84.13 57.011 -82.254 56.034 -80.375 55.062 C-79.331 54.517 -78.287 53.972 -77.211 53.41 C-74.076 52.033 -71.385 51.402 -68 51 C-68 50.34 -68 49.68 -68 49 C-65.709 47.769 -63.418 46.54 -61.125 45.312 C-60.445 44.948 -59.765 44.584 -59.064 44.208 C-54.375 41.707 -49.649 39.304 -44.855 37.008 C-43 36 -43 36 -41 34 C-39.107 33.269 -37.212 32.545 -35.301 31.863 C-32.087 30.657 -28.994 29.217 -25.883 27.77 C-24 27 -24 27 -22 27 C-22 26.34 -22 25.68 -22 25 C-20.961 24.481 -19.922 23.961 -18.852 23.426 C-18.18 23.09 -17.509 22.755 -16.818 22.409 C-15.35 21.675 -13.883 20.942 -12.415 20.208 C-9.236 18.62 -6.058 17.029 -2.887 15.426 C-2.037 14.997 -1.188 14.567 -0.312 14.125 C0.413 13.756 1.139 13.388 1.887 13.008 C4.22 11.895 6.591 10.936 9 10 C9.042 7.667 9.041 5.333 9 3 C8 2 8 2 6.152 1.902 C4.102 1.935 2.051 1.967 0 2 C0 1.34 0 0.68 0 0 Z " fill="#DDAD20" transform="translate(324,120)"/>
<path d="M0 0 C9.355 4.816 9.355 4.816 13.5 6 C17.31 7.089 20.469 8.687 23.977 10.5 C27.706 12.35 31.496 14.026 35.312 15.688 C35.994 15.985 36.676 16.282 37.379 16.589 C40.139 17.786 42.903 18.962 45.703 20.062 C48.039 21.016 50.211 22.128 52.438 23.312 C58.737 26.515 65.317 28.737 72 31 C72 31.66 72 32.32 72 33 C72.413 33.031 72.413 33.031 74.5 33.188 C79.014 34.235 82.44 36.033 86 39 C87.812 42.125 87.812 42.125 89 45 C89.516 45.495 90.031 45.99 90.562 46.5 C94.723 50.842 94.277 57.153 94.227 62.759 C94.227 63.618 94.228 64.478 94.228 65.363 C94.227 68.187 94.211 71.012 94.195 73.836 C94.192 75.8 94.189 77.765 94.187 79.729 C94.179 84.888 94.159 90.047 94.137 95.205 C94.117 100.474 94.108 105.743 94.098 111.012 C94.076 121.341 94.042 131.671 94 142 C93.34 142 92.68 142 92 142 C91.567 143.134 91.134 144.269 90.688 145.438 C87.725 151.384 82.561 155.519 77 159 C73.648 159.754 73.648 159.754 71 160 C71 160.66 71 161.32 71 162 C69.948 162.516 68.896 163.031 67.812 163.562 C63.929 165.508 60.085 167.522 56.25 169.562 C55.162 170.141 54.074 170.72 52.953 171.316 C50.457 172.74 48.285 174.275 46 176 C44.014 176.706 42.012 177.369 40 178 C32.443 181.023 25.248 184.826 18.008 188.531 C14.05 190.464 9.988 192.078 5.902 193.719 C3.104 194.954 0.612 196.418 -2 198 C-3.255 198.519 -4.526 199.002 -5.812 199.438 C-17.292 203.584 -17.292 203.584 -19 207 C-20.982 207.495 -22.965 207.986 -24.957 208.438 C-27.621 209.171 -29.646 210.565 -32 212 C-33.304 212.441 -34.618 212.855 -35.938 213.25 C-41.466 214.994 -46.495 217.667 -51.637 220.297 C-55.698 222.353 -59.822 224.198 -64 226 C-65.355 226.603 -66.709 227.207 -68.062 227.812 C-72.41 229.745 -76.767 231.655 -81.125 233.562 C-81.794 233.856 -82.463 234.149 -83.153 234.45 C-84.463 235.023 -85.774 235.595 -87.086 236.164 C-88.355 236.718 -89.619 237.282 -90.878 237.856 C-98.9 241.456 -106.457 241.259 -115 240 C-116.217 239.897 -117.434 239.794 -118.688 239.688 C-122.602 238.875 -124.713 237.256 -128 235 C-130.532 233.905 -133.095 232.925 -135.672 231.941 C-138.3 230.879 -140.603 229.507 -143 228 C-144.657 227.31 -146.326 226.647 -148 226 C-157.585 222.008 -166.807 217.172 -176.043 212.441 C-180.319 210.262 -184.428 208.489 -189 207 C-190.672 206.01 -192.338 205.008 -194 204 C-196.464 202.638 -198.95 201.319 -201.438 200 C-201.759 199.829 -201.759 199.829 -203.385 198.961 C-213.967 193.331 -213.967 193.331 -218.312 191.938 C-221 191 -221 191 -222 189 C-223.788 188.075 -225.606 187.21 -227.438 186.375 C-235.351 182.47 -242.996 178.426 -246.5 169.938 C-247.043 168.305 -247.54 166.657 -248 165 C-248.339 163.935 -248.678 162.871 -249.028 161.774 C-249.994 158.022 -250.26 154.893 -250.275 151.03 C-250.28 150.372 -250.285 149.714 -250.29 149.036 C-250.304 146.882 -250.303 144.728 -250.301 142.574 C-250.305 141.061 -250.309 139.548 -250.314 138.035 C-250.321 134.87 -250.321 131.706 -250.316 128.541 C-250.31 124.51 -250.327 120.479 -250.35 116.448 C-250.365 113.324 -250.366 110.201 -250.363 107.077 C-250.363 105.592 -250.368 104.107 -250.378 102.622 C-250.461 88.893 -248.918 79.043 -239 69 C-236.489 66.92 -233.918 65.442 -231 64 C-230.463 63.731 -230.463 63.731 -227.746 62.371 C-218.669 58 -218.669 58 -214 58 C-213.835 57.505 -213.835 57.505 -213 55 C-211.128 54.49 -209.25 53.995 -207.354 53.584 C-204.919 52.98 -202.715 52.163 -200.395 51.211 C-199.52 50.854 -198.646 50.498 -197.745 50.13 C-196.839 49.757 -195.933 49.384 -195 49 C-193.211 48.272 -191.422 47.544 -189.633 46.816 C-187.797 46.066 -185.961 45.314 -184.125 44.562 C-183.158 44.167 -182.192 43.772 -181.196 43.364 C-176.267 41.346 -171.346 39.314 -166.438 37.25 C-161.371 35.129 -156.256 33.151 -151.121 31.203 C-147.422 29.777 -143.767 28.255 -140.121 26.699 C-138 26 -138 26 -134 26 C-133.67 24.68 -133.34 23.36 -133 22 C-132.031 22.082 -131.061 22.165 -130.062 22.25 C-126.934 22.248 -124.834 21.631 -122.027 20.273 C-115.248 17.137 -108.203 14.708 -101.18 12.18 C-100.141 11.798 -99.102 11.417 -98.031 11.023 C-97.088 10.682 -96.145 10.341 -95.174 9.99 C-93 9 -93 9 -92 7 C-89.975 6.743 -87.946 6.492 -85.91 6.344 C-84 6 -84 6 -82 4 C-80.355 3.32 -78.683 2.704 -77 2.125 C-73.361 0.852 -69.796 -0.489 -66.25 -2 C-44.603 -10.55 -20.985 -11.034 0 0 Z M-76 4 C-76 4.66 -76 5.32 -76 6 C-78.31 6.33 -80.62 6.66 -83 7 C-83 7.66 -83 8.32 -83 9 C-83.877 9.121 -84.753 9.243 -85.657 9.368 C-88.859 9.973 -91.493 10.856 -94.492 12.109 C-95.519 12.532 -96.546 12.955 -97.605 13.39 C-98.144 13.614 -98.144 13.614 -100.875 14.75 C-109.343 18.214 -117.75 21.319 -126.52 23.906 C-131.833 25.576 -136.915 27.737 -142 30 C-142 30.66 -142 31.32 -142 32 C-143.093 32.062 -144.186 32.124 -145.312 32.188 C-149.917 32.773 -153.583 34.476 -157.742 36.469 C-167.497 41.054 -177.548 45.303 -188 48 C-188 48.66 -188 49.32 -188 50 C-188.969 50.083 -189.939 50.165 -190.938 50.25 C-196.969 51.113 -202.23 54.068 -207.562 56.875 C-214.085 60.21 -221.128 62.498 -228 65 C-228 65.66 -228 66.32 -228 67 C-229.052 67.227 -230.104 67.454 -231.188 67.688 C-237.502 69.53 -240.537 74.527 -243.887 79.84 C-246.455 84.824 -247.256 89.291 -247.306 94.869 C-247.315 95.528 -247.323 96.188 -247.332 96.867 C-247.356 99.035 -247.364 101.203 -247.371 103.371 C-247.38 104.896 -247.389 106.421 -247.398 107.946 C-247.415 111.143 -247.423 114.339 -247.426 117.536 C-247.431 121.59 -247.468 125.644 -247.514 129.698 C-247.544 132.851 -247.551 136.004 -247.552 139.158 C-247.556 140.65 -247.569 142.142 -247.59 143.634 C-247.75 155.898 -246.534 168.436 -238 178 C-235.28 180.438 -232.451 181.692 -229.09 183.07 C-225.668 184.593 -222.433 186.448 -219.156 188.258 C-210.383 193.1 -201.621 197.866 -192.441 201.902 C-190.081 202.964 -187.795 204.117 -185.5 205.312 C-182 207 -182 207 -179 207 C-179 207.66 -179 208.32 -179 209 C-174.512 211.417 -170.259 213.283 -165.375 214.75 C-159.107 216.75 -153.798 219.775 -148.18 223.117 C-145.185 224.89 -142.18 226.497 -139.047 228.004 C-137.418 228.796 -135.807 229.625 -134.203 230.465 C-120.96 237.339 -107.976 240.688 -93.043 236.766 C-89.897 235.587 -87.08 233.945 -84.199 232.23 C-82.08 231.045 -80.035 230.185 -77.75 229.375 C-74 228 -74 228 -71.755 226.636 C-68.338 224.607 -64.801 223.044 -61.164 221.453 C-60.408 221.119 -59.651 220.785 -58.872 220.44 C-56.458 219.374 -54.041 218.312 -51.625 217.25 C-48.47 215.861 -45.317 214.471 -42.164 213.078 C-41.392 212.737 -40.62 212.396 -39.824 212.045 C-33.576 209.278 -27.383 206.404 -21.206 203.479 C-18.187 202.086 -15.147 200.801 -12.062 199.562 C-3.761 196.17 4.159 191.981 12.141 187.908 C12.842 187.553 13.543 187.198 14.266 186.832 C14.898 186.511 15.53 186.19 16.181 185.859 C18.714 184.663 21.32 183.804 24 183 C24 182.34 24 181.68 24 181 C24.592 180.89 25.183 180.781 25.793 180.668 C26.583 180.509 27.373 180.351 28.188 180.188 C28.965 180.037 29.742 179.886 30.543 179.73 C33.392 178.883 35.476 177.571 38 176 C40.451 174.752 42.907 173.524 45.375 172.312 C85.703 152.269 85.703 152.269 91.159 138.169 C92.919 131.537 92.548 124.634 92.496 117.82 C92.496 116.159 92.498 114.499 92.501 112.838 C92.502 109.37 92.489 105.902 92.467 102.434 C92.438 98.021 92.441 93.608 92.454 89.195 C92.461 85.768 92.453 82.342 92.44 78.915 C92.436 77.289 92.435 75.664 92.439 74.038 C92.452 64.658 91.876 56.027 89 47 C88.34 47 87.68 47 87 47 C86.942 46.239 86.884 45.479 86.824 44.695 C86 42 86 42 83.707 40.305 C82.752 39.833 81.797 39.361 80.812 38.875 C79.87 38.398 78.928 37.921 77.957 37.43 C76.981 36.958 76.005 36.486 75 36 C72.063 34.543 69.14 33.075 66.246 31.535 C61.16 28.868 56.288 26.673 50.75 25.125 C44.668 23.387 39.338 20.826 33.749 17.931 C29.307 15.632 24.855 13.639 20.172 11.871 C17.946 10.978 15.87 9.932 13.75 8.812 C10.535 7.146 7.635 6.363 4 6 C4 5.34 4 4.68 4 4 C1.457 3.054 -1.09 2.126 -3.648 1.223 C-5.864 0.415 -8.058 -0.452 -10.227 -1.379 C-32.124 -10.054 -55.029 -4.416 -76 4 Z " fill="#FDF4CA" transform="translate(260,65)"/>
<path d="M0 0 C2 2 2 2 2.125 5.625 C2.084 6.739 2.043 7.852 2 9 C-2.511 11.659 -6.973 14.076 -11.875 15.938 C-16.766 17.8 -21.216 20.226 -25.75 22.828 C-28 24 -28 24 -30 24 C-30 24.66 -30 25.32 -30 26 C-31.646 26.751 -33.291 27.5 -34.938 28.25 C-35.943 28.709 -36.948 29.168 -37.984 29.641 C-40.54 30.793 -43.109 31.9 -45.688 33 C-48.478 34.234 -51.012 35.579 -53.562 37.25 C-57.675 39.922 -61.997 42.114 -66.375 44.312 C-67.09 44.674 -67.805 45.036 -68.541 45.409 C-73.752 48 -73.752 48 -76 48 C-76 48.66 -76 49.32 -76 50 C-76.88 50.338 -77.761 50.675 -78.668 51.023 C-79.249 51.246 -79.249 51.246 -82.188 52.375 C-83.336 52.816 -84.485 53.257 -85.668 53.711 C-88.453 54.789 -91.23 55.884 -94 57 C-94 57.66 -94 58.32 -94 59 C-94.675 59.254 -95.351 59.508 -96.047 59.77 C-96.939 60.114 -97.831 60.458 -98.75 60.812 C-99.632 61.149 -100.513 61.485 -101.422 61.832 C-104 63 -104 63 -105.891 64.449 C-108.156 66.115 -110.476 67.125 -113.069 68.188 C-116.516 69.638 -119.843 71.33 -123.188 73 C-123.886 73.343 -124.584 73.686 -125.303 74.039 C-128.804 75.785 -131.911 77.578 -135 80 C-136.602 80.701 -138.207 81.397 -139.824 82.062 C-147.564 85.397 -154.918 89.404 -162.039 93.898 C-164 95 -164 95 -166 95 C-166 95.66 -166 96.32 -166 97 C-166.66 97 -167.32 97 -168 97 C-171.112 105.169 -171.455 112.792 -171.477 121.469 C-171.491 122.84 -171.507 124.211 -171.524 125.582 C-171.565 129.158 -171.591 132.734 -171.611 136.311 C-171.647 142.062 -171.708 147.813 -171.77 153.564 C-171.789 155.569 -171.8 157.573 -171.811 159.577 C-171.821 160.786 -171.832 161.995 -171.842 163.24 C-171.849 164.307 -171.855 165.374 -171.862 166.473 C-172 169 -172 169 -173 171 C-175.97 171 -178.94 171 -182 171 C-182 170.34 -182 169.68 -182 169 C-182.66 169 -183.32 169 -184 169 C-184.002 168.602 -184.002 168.602 -184.011 166.586 C-184.049 159.054 -184.106 151.522 -184.184 143.99 C-184.223 140.118 -184.256 136.246 -184.271 132.375 C-184.286 128.633 -184.321 124.892 -184.368 121.151 C-184.383 119.728 -184.391 118.306 -184.392 116.884 C-184.401 108.886 -184.529 102.778 -189 96 C-191.289 93.941 -191.289 93.941 -193.625 92.562 C-194.013 92.326 -194.013 92.326 -195.977 91.129 C-197.302 90.39 -198.643 89.679 -200 89 C-200 88.34 -200 87.68 -200 87 C-200.419 86.872 -200.419 86.872 -202.539 86.227 C-206.315 84.888 -209.819 83.199 -213.375 81.375 C-214.799 80.654 -216.224 79.932 -217.648 79.211 C-218.371 78.843 -219.094 78.476 -219.839 78.097 C-223.218 76.382 -226.609 74.692 -230 73 C-231.323 72.339 -232.646 71.677 -233.969 71.016 C-234.627 70.686 -235.286 70.357 -235.965 70.018 C-240.737 67.632 -245.509 65.245 -250.281 62.859 C-250.885 62.558 -251.488 62.257 -252.11 61.946 C-253.452 61.274 -254.792 60.6 -256.132 59.923 C-256.836 59.568 -257.54 59.213 -258.266 58.848 C-258.903 58.525 -259.54 58.203 -260.196 57.871 C-261.849 57.073 -263.548 56.375 -265.25 55.688 C-268.673 54.27 -271.761 52.401 -274.938 50.5 C-278.361 48.461 -281.609 46.621 -285.375 45.312 C-289.079 43.972 -291.759 42.207 -295 40 C-297.302 38.9 -299.632 37.956 -302 37 C-302.66 36.67 -303.32 36.34 -304 36 C-304.125 32.625 -304.125 32.625 -304 29 C-302 27 -302 27 -299.25 26.688 C-295.523 27.046 -293.242 28.168 -290 30 C-289.216 30.392 -288.433 30.784 -287.625 31.188 C-287.089 31.456 -286.553 31.724 -286 32 C-286 32.66 -286 33.32 -286 34 C-285.169 34.083 -284.337 34.165 -283.48 34.25 C-279.245 35.163 -276.062 36.893 -272.312 39 C-265.049 42.974 -257.67 46.601 -250.157 50.08 C-249.397 50.434 -248.636 50.788 -247.852 51.152 C-247.179 51.462 -246.507 51.771 -245.815 52.09 C-244 53 -244 53 -241 55 C-239.969 55.268 -238.938 55.536 -237.875 55.812 C-233.96 56.851 -230.766 58.735 -227.285 60.766 C-225.059 61.968 -222.885 62.851 -220.5 63.688 C-217 65 -217 65 -216 67 C-213.843 68.024 -211.648 68.97 -209.438 69.875 C-205.483 71.509 -201.579 73.147 -197.812 75.188 C-187.862 80.215 -176.506 81.997 -165.652 79.109 C-153.874 74.701 -142.814 68.344 -131.738 62.439 C-130.834 61.964 -129.931 61.489 -129 61 C-127.978 60.445 -126.957 59.889 -125.905 59.317 C-123 58 -123 58 -119 58 C-119 57.34 -119 56.68 -119 56 C-116.71 54.855 -114.42 53.71 -112.129 52.566 C-109.905 51.453 -107.684 50.336 -105.465 49.215 C-104.86 48.91 -104.255 48.605 -103.631 48.291 C-101.885 47.412 -100.14 46.53 -98.395 45.648 C-96.148 44.558 -93.875 43.52 -91.578 42.539 C-87.617 40.835 -83.784 38.947 -79.938 37 C-79.256 36.657 -78.575 36.314 -77.873 35.961 C-76.533 35.286 -75.193 34.611 -73.854 33.935 C-71.239 32.616 -68.62 31.308 -66 30 C-64.837 29.419 -63.675 28.837 -62.477 28.238 C-51.604 22.802 -40.732 17.366 -29.859 11.93 C-29.178 11.589 -28.497 11.248 -27.794 10.896 C-26.444 10.222 -25.093 9.549 -23.741 8.877 C-20.652 7.341 -17.587 5.781 -14.539 4.164 C-14.017 3.889 -14.017 3.889 -11.375 2.5 C-10.475 2.015 -9.575 1.531 -8.648 1.031 C-5.554 -0.174 -3.294 -0.332 0 0 Z M-5 3 C-5.33 3.99 -5.66 4.98 -6 6 C-6.887 6.144 -7.774 6.289 -8.688 6.438 C-11.471 6.91 -14.235 7.431 -17 8 C-17 8.66 -17 9.32 -17 10 C-17.784 10.144 -18.567 10.289 -19.375 10.438 C-22 11 -22 11 -24 12 C-24 12.99 -24 13.98 -24 15 C-24.804 14.917 -25.609 14.835 -26.438 14.75 C-31.865 15.131 -36.195 17.597 -41 20 C-41 20.99 -41 21.98 -41 23 C-41.443 22.969 -41.443 22.969 -43.688 22.812 C-47.417 23.024 -48.961 23.921 -52 26 C-52.371 26.175 -52.371 26.175 -54.25 27.062 C-56 28 -56 28 -57 30 C-58.893 30.44 -60.787 30.877 -62.684 31.305 C-66.022 32.307 -68.819 34.001 -71.812 35.758 C-74.784 37.445 -77.835 38.72 -81 40 C-81 40.66 -81 41.32 -81 42 C-81.99 42.165 -81.99 42.165 -87 43 C-87.33 43.99 -87.66 44.98 -88 46 C-88.928 46.041 -89.856 46.083 -90.812 46.125 C-95.368 46.787 -98.844 48.937 -102.797 51.199 C-106.374 53.21 -110.011 55.054 -113.688 56.875 C-114.37 57.214 -115.052 57.552 -115.755 57.901 C-117.15 58.593 -118.546 59.285 -119.941 59.977 C-121.912 60.956 -123.879 61.945 -125.844 62.938 C-133.505 66.804 -141.206 70.588 -148.938 74.312 C-149.801 74.733 -150.665 75.154 -151.555 75.587 C-163.53 81.32 -173.699 84.694 -186.938 81.25 C-187.643 81.072 -188.348 80.893 -189.074 80.71 C-192.763 79.735 -196.146 78.633 -199.5 76.812 C-203.576 74.702 -206.468 74.324 -211 74 C-211.33 73.01 -211.66 72.02 -212 71 C-214.34 69.642 -216.621 68.459 -219.062 67.312 C-220.524 66.606 -221.985 65.899 -223.445 65.191 C-224.198 64.831 -224.952 64.47 -225.728 64.098 C-228.632 62.694 -231.511 61.241 -234.389 59.785 C-239.82 57.04 -245.267 54.384 -250.852 51.965 C-253.315 50.859 -255.715 49.656 -258.125 48.438 C-265.27 44.828 -272.499 41.397 -279.727 37.959 C-280.203 37.732 -280.203 37.732 -282.609 36.586 C-283.527 36.15 -284.444 35.713 -285.389 35.264 C-287.784 34.104 -290.151 32.9 -292.516 31.68 C-295.776 30.108 -297.465 29.558 -301 30 C-301 34 -301 34 -298.938 36.188 C-295.553 38.276 -292.932 38.692 -289 39 C-289 39.66 -289 40.32 -289 41 C-288.145 41.248 -287.291 41.495 -286.41 41.75 C-282.712 43.106 -279.749 44.873 -276.438 47 C-272.684 49.405 -269.179 51.452 -265 53 C-263.126 53.921 -261.253 54.844 -259.391 55.789 C-257.572 56.71 -255.748 57.619 -253.922 58.523 C-252.855 59.052 -251.787 59.58 -250.688 60.125 C-249.681 60.623 -248.674 61.12 -247.637 61.633 C-245 63 -245 63 -242 65 C-240.68 65 -239.36 65 -238 65 C-238 65.66 -238 66.32 -238 67 C-233.607 69.021 -229.847 70.409 -225 71 C-225 71.66 -225 72.32 -225 73 C-224.481 73.254 -223.961 73.508 -223.426 73.77 C-220.321 75.302 -217.277 76.832 -214.312 78.625 C-212 80 -212 80 -209.656 80.906 C-206.966 82.014 -204.654 83.337 -202.188 84.875 C-198.476 87.154 -194.765 89.169 -190.789 90.945 C-187.411 92.936 -185.356 95.051 -183.97 98.745 C-182.18 106.877 -181.546 114.607 -181.523 122.922 C-181.508 124.188 -181.492 125.455 -181.476 126.76 C-181.437 130.08 -181.41 133.4 -181.389 136.721 C-181.357 141.437 -181.306 146.153 -181.252 150.868 C-181.225 153.371 -181.204 155.874 -181.189 158.377 C-181.179 159.496 -181.168 160.615 -181.158 161.769 C-181.151 162.757 -181.145 163.746 -181.138 164.765 C-181 167 -181 167 -180 168 C-178.334 168.041 -176.666 168.043 -175 168 C-174.251 163.994 -173.876 160.21 -173.874 156.137 C-173.87 155.006 -173.866 153.874 -173.862 152.708 C-173.861 151.499 -173.86 150.289 -173.859 149.043 C-173.841 146.46 -173.821 143.878 -173.801 141.295 C-173.77 137.24 -173.748 133.185 -173.75 129.13 C-173.75 125.205 -173.712 121.28 -173.672 117.355 C-173.679 116.152 -173.686 114.949 -173.693 113.709 C-173.587 106.296 -172.508 100.998 -168 95 C-165.93 93.02 -165.93 93.02 -163.875 91.812 C-163.488 91.58 -163.488 91.58 -161.531 90.406 C-160.696 89.942 -159.861 89.478 -159 89 C-158.082 88.474 -157.164 87.948 -156.219 87.406 C-151.248 84.62 -146.253 82.212 -141 80 C-135.013 77.123 -129.122 74.094 -123.312 70.875 C-119.307 68.662 -115.263 66.741 -111.062 64.934 C-106.974 63.083 -103.188 60.735 -99.375 58.375 C-97 57 -97 57 -94.75 56.125 C-91.444 54.772 -88.439 53.05 -85.332 51.293 C-83.204 50.113 -81.059 49.01 -78.875 47.938 C-69.117 43.117 -69.117 43.117 -66 40 C-64.002 39.326 -62.002 38.661 -60 38 C-57.501 36.87 -55.064 35.628 -52.625 34.375 C-51.984 34.05 -51.344 33.725 -50.684 33.391 C-49.121 32.597 -47.56 31.799 -46 31 C-46 30.34 -46 29.68 -46 29 C-45.582 28.957 -45.582 28.957 -43.469 28.742 C-39.312 27.853 -36.175 26.196 -32.5 24.125 C-31.219 23.419 -29.938 22.713 -28.656 22.008 C-28.346 21.836 -28.346 21.836 -26.775 20.966 C-24.217 19.574 -21.609 18.292 -19 17 C-16.428 15.684 -13.869 14.345 -11.312 13 C-10.981 12.829 -10.981 12.829 -9.303 11.961 C-2.857 8.56 -2.857 8.56 -1 6 C-1 5.01 -1 4.02 -1 3 C-2.32 3 -3.64 3 -5 3 Z " fill="#FCF4C8" transform="translate(332,121)"/>
<path d="M0 0 C3.63 0 7.26 0 11 0 C11.33 1.32 11.66 2.64 12 4 C12.99 4.33 13.98 4.66 15 5 C15.33 6.65 15.66 8.3 16 10 C6.741 15.268 -2.477 20.42 -12.219 24.75 C-14.737 25.882 -17.178 27.098 -19.625 28.375 C-23 30 -23 30 -26 30 C-26 30.66 -26 31.32 -26 32 C-44.208 41.783 -44.208 41.783 -52 45 C-53.034 45.443 -54.068 45.887 -55.133 46.344 C-63.725 50 -63.725 50 -66 50 C-66 50.99 -66 51.98 -66 53 C-68.766 54.343 -71.539 55.673 -74.312 57 C-75.098 57.382 -75.884 57.763 -76.693 58.156 C-77.072 58.337 -77.072 58.337 -78.988 59.25 C-79.337 59.418 -79.337 59.418 -81.099 60.266 C-83 61 -83 61 -86 61 C-86 61.66 -86 62.32 -86 63 C-87.624 63.812 -89.249 64.624 -90.873 65.437 C-92.317 66.158 -93.76 66.88 -95.203 67.603 C-98.738 69.371 -102.274 71.137 -105.816 72.891 C-113.987 76.941 -122.098 81.101 -130.188 85.312 C-131.18 85.828 -132.173 86.344 -133.196 86.876 C-133.665 87.121 -133.665 87.121 -136.043 88.363 C-136.879 88.799 -137.714 89.235 -138.575 89.685 C-140.269 90.604 -141.939 91.569 -143.587 92.567 C-147.297 94.77 -151.282 96.35 -155.312 97.875 C-157.699 99.466 -158.156 101.328 -159 104 C-159.66 104 -160.32 104 -161 104 C-161.006 104.847 -161.012 105.695 -161.018 106.568 C-161.076 114.544 -161.148 122.519 -161.236 130.495 C-161.28 134.595 -161.32 138.696 -161.346 142.796 C-161.372 146.752 -161.413 150.707 -161.463 154.662 C-161.48 156.173 -161.491 157.684 -161.498 159.195 C-161.507 161.307 -161.535 163.419 -161.568 165.531 C-161.579 166.734 -161.59 167.938 -161.601 169.178 C-161.667 169.644 -161.667 169.644 -162 172 C-165.146 174.097 -165.912 174.253 -169.5 174.188 C-170.273 174.181 -171.047 174.175 -171.844 174.168 C-174 174 -174 174 -177 173 C-178.359 170.281 -178.147 168.113 -178.174 165.069 C-178.187 163.824 -178.201 162.579 -178.214 161.296 C-178.22 160.629 -178.225 159.962 -178.23 159.274 C-178.246 157.185 -178.269 155.096 -178.295 153.006 C-178.365 147.066 -178.425 141.125 -178.477 135.184 C-178.509 131.55 -178.55 127.917 -178.597 124.284 C-178.613 122.901 -178.625 121.518 -178.634 120.135 C-178.646 118.196 -178.671 116.258 -178.697 114.319 C-178.707 113.217 -178.718 112.115 -178.728 110.98 C-179.005 107.94 -179.808 105.785 -181 103 C-181 102.01 -181 101.02 -181 100 C-181.66 100 -182.32 100 -183 100 C-183 98.68 -183 97.36 -183 96 C-183.34 95.876 -183.34 95.876 -185.062 95.25 C-188.569 93.758 -191.716 91.932 -195 90 C-195 89.34 -195 88.68 -195 88 C-197.31 88 -199.62 88 -202 88 C-202 87.34 -202 86.68 -202 86 C-202.99 85.67 -203.98 85.34 -205 85 C-205.33 84.01 -205.66 83.02 -206 82 C-200.701 83.298 -196.655 85.15 -192 88 C-192 88.66 -192 89.32 -192 90 C-191.154 90.206 -190.309 90.412 -189.438 90.625 C-184.065 92.774 -180.365 95.68 -177.417 100.689 C-174.913 106.743 -175.634 113.472 -175.707 119.902 C-175.713 121.35 -175.717 122.797 -175.72 124.244 C-175.731 128.034 -175.761 131.823 -175.794 135.612 C-175.825 139.487 -175.838 143.362 -175.854 147.236 C-175.886 154.824 -175.937 162.412 -176 170 C-175.34 170 -174.68 170 -174 170 C-174 170.66 -174 171.32 -174 172 C-171.03 172 -168.06 172 -165 172 C-164.994 171.216 -164.988 170.432 -164.982 169.624 C-164.924 162.209 -164.852 154.795 -164.764 147.381 C-164.72 143.57 -164.68 139.759 -164.654 135.947 C-164.627 132.264 -164.587 128.581 -164.537 124.899 C-164.52 123.499 -164.509 122.099 -164.502 120.698 C-164.46 112.094 -163.859 105.718 -160 98 C-159.34 98 -158.68 98 -158 98 C-158 97.34 -158 96.68 -158 96 C-134.114 82.213 -134.114 82.213 -128.703 80.105 C-124.59 78.423 -120.73 76.279 -116.812 74.188 C-115.103 73.282 -113.394 72.377 -111.684 71.473 C-110.87 71.042 -110.056 70.612 -109.218 70.168 C-89.914 60 -89.914 60 -86 60 C-86 59.34 -86 58.68 -86 58 C-84.13 57.011 -82.254 56.034 -80.375 55.062 C-79.331 54.517 -78.287 53.972 -77.211 53.41 C-74.076 52.033 -71.385 51.402 -68 51 C-68 50.34 -68 49.68 -68 49 C-65.709 47.769 -63.418 46.54 -61.125 45.312 C-60.445 44.948 -59.765 44.584 -59.064 44.208 C-54.375 41.707 -49.649 39.304 -44.855 37.008 C-43 36 -43 36 -41 34 C-39.107 33.269 -37.212 32.545 -35.301 31.863 C-32.087 30.657 -28.994 29.217 -25.883 27.77 C-24 27 -24 27 -22 27 C-22 26.34 -22 25.68 -22 25 C-20.961 24.481 -19.922 23.961 -18.852 23.426 C-18.18 23.09 -17.509 22.755 -16.818 22.409 C-15.35 21.675 -13.883 20.942 -12.415 20.208 C-9.236 18.62 -6.058 17.029 -2.887 15.426 C-2.037 14.997 -1.188 14.567 -0.312 14.125 C0.05 13.941 0.05 13.941 1.887 13.008 C4.22 11.895 6.591 10.936 9 10 C9.042 7.667 9.041 5.333 9 3 C8 2 8 2 6.152 1.902 C4.102 1.935 2.051 1.967 0 2 C0 1.34 0 0.68 0 0 Z " fill="#E5C053" transform="translate(324,120)"/>
<path d="M0 0 C0 0.66 0 1.32 0 2 C-0.825 2.33 -0.825 2.33 -5 4 C-5 4.66 -5 5.32 -5 6 C-6.052 6.516 -7.104 7.031 -8.188 7.562 C-12.071 9.508 -15.915 11.522 -19.75 13.562 C-20.838 14.141 -21.926 14.72 -23.047 15.316 C-25.543 16.74 -27.715 18.275 -30 20 C-31.986 20.706 -33.988 21.369 -36 22 C-43.557 25.023 -50.752 28.826 -57.992 32.531 C-61.95 34.464 -66.012 36.078 -70.098 37.719 C-72.896 38.954 -75.388 40.418 -78 42 C-79.255 42.519 -80.526 43.002 -81.812 43.438 C-93.292 47.584 -93.292 47.584 -95 51 C-96.982 51.495 -98.965 51.986 -100.957 52.438 C-103.621 53.171 -105.646 54.565 -108 56 C-109.304 56.441 -110.618 56.855 -111.938 57.25 C-117.466 58.994 -122.495 61.667 -127.637 64.297 C-131.698 66.353 -135.822 68.198 -140 70 C-141.355 70.603 -142.709 71.207 -144.062 71.812 C-147.031 73.134 -150.006 74.44 -152.984 75.738 C-153.696 76.049 -154.407 76.359 -155.14 76.678 C-156.565 77.299 -157.991 77.919 -159.416 78.538 C-164.78 80.876 -164.78 80.876 -166.926 82.087 C-169.367 83.162 -171.106 83.229 -173.766 83.195 C-174.655 83.189 -175.545 83.182 -176.461 83.176 C-176.921 83.167 -176.921 83.167 -179.25 83.125 C-179.718 83.12 -179.718 83.12 -182.086 83.098 C-184.391 83.074 -186.695 83.041 -189 83 C-189 82.67 -189 82.34 -189 82 C-188.384 81.963 -188.384 81.963 -185.266 81.773 C-174.82 80.997 -167.179 79.302 -158 74 C-156.535 73.4 -155.057 72.833 -153.562 72.312 C-150 71 -150 71 -147.767 69.64 C-144.345 67.612 -140.805 66.045 -137.164 64.453 C-136.408 64.119 -135.651 63.785 -134.872 63.44 C-132.458 62.374 -130.041 61.312 -127.625 60.25 C-124.47 58.861 -121.317 57.471 -118.164 56.078 C-117.392 55.737 -116.62 55.396 -115.824 55.045 C-109.576 52.278 -103.383 49.404 -97.206 46.479 C-94.187 45.086 -91.147 43.801 -88.062 42.562 C-81.83 40.016 -75.857 37.013 -69.859 33.965 C-69.545 33.805 -69.545 33.805 -67.953 32.997 C-66.586 32.299 -65.222 31.597 -63.859 30.89 C-63.158 30.531 -62.457 30.171 -61.734 29.801 C-61.418 29.637 -61.418 29.637 -59.819 28.81 C-57.274 27.677 -54.758 27.276 -52 27 C-52 26.34 -52 25.68 -52 25 C-51.408 24.818 -50.817 24.636 -50.207 24.449 C-49.417 24.198 -48.627 23.946 -47.812 23.688 C-47.035 23.444 -46.258 23.2 -45.457 22.949 C-42.742 21.9 -40.484 20.517 -38 19 C-35.549 17.752 -33.094 16.524 -30.625 15.312 C-24.978 12.515 -19.372 9.654 -13.812 6.688 C-13.202 6.362 -12.591 6.037 -11.961 5.702 C-9.327 4.29 -6.743 2.841 -4.199 1.27 C-2 0 -2 0 0 0 Z " fill="#F6EBC2" transform="translate(336,221)"/>
<path d="M0 0 C5.299 1.298 9.345 3.15 14 6 C14 6.66 14 7.32 14 8 C14.846 8.206 15.691 8.412 16.562 8.625 C21.935 10.774 25.635 13.68 28.583 18.689 C31.087 24.743 30.366 31.472 30.293 37.902 C30.287 39.35 30.283 40.797 30.28 42.244 C30.269 46.034 30.239 49.823 30.206 53.612 C30.175 57.487 30.162 61.362 30.146 65.236 C30.114 72.824 30.063 80.412 30 88 C30.66 88 31.32 88 32 88 C32 88.66 32 89.32 32 90 C34.97 90 37.94 90 41 90 C41.33 69.54 41.66 49.08 42 28 C42.66 27.67 43.32 27.34 44 27 C44.069 35.18 44.123 43.359 44.155 51.539 C44.171 55.337 44.192 59.135 44.226 62.933 C44.259 66.596 44.277 70.259 44.285 73.923 C44.29 75.322 44.301 76.722 44.317 78.121 C44.339 80.077 44.34 82.034 44.341 83.99 C44.347 85.104 44.354 86.219 44.361 87.368 C44.242 88.236 44.123 89.105 44 90 C40.854 92.097 40.088 92.253 36.5 92.188 C35.727 92.181 34.953 92.175 34.156 92.168 C32 92 32 92 29 91 C27.641 88.281 27.853 86.113 27.826 83.069 C27.813 81.824 27.799 80.579 27.786 79.296 C27.78 78.629 27.775 77.962 27.77 77.274 C27.754 75.185 27.731 73.096 27.705 71.006 C27.635 65.066 27.575 59.125 27.523 53.184 C27.491 49.55 27.45 45.917 27.403 42.284 C27.387 40.901 27.375 39.518 27.366 38.135 C27.354 36.196 27.329 34.258 27.303 32.319 C27.293 31.217 27.282 30.115 27.272 28.98 C26.995 25.94 26.192 23.785 25 21 C25 20.01 25 19.02 25 18 C24.34 18 23.68 18 23 18 C23 16.68 23 15.36 23 14 C22.319 13.752 21.639 13.505 20.938 13.25 C17.431 11.758 14.284 9.932 11 8 C11 7.34 11 6.68 11 6 C8.69 6 6.38 6 4 6 C4 5.34 4 4.68 4 4 C3.01 3.67 2.02 3.34 1 3 C0.67 2.01 0.34 1.02 0 0 Z " fill="#DFB63D" transform="translate(118,202)"/>
<path d="M0 0 C6.095 0.452 10.242 1.767 15.5 4.812 C16.812 5.541 18.125 6.269 19.438 6.996 C20.055 7.344 20.672 7.692 21.309 8.05 C25.572 10.444 29.697 12.645 34.438 13.938 C38.278 15.083 41.273 16.758 44.715 18.766 C46.941 19.968 49.115 20.851 51.5 21.688 C55 23 55 23 56 25 C58.157 26.024 60.352 26.97 62.562 27.875 C66.517 29.509 70.421 31.147 74.188 33.188 C83.425 37.855 94.8 40.252 104.958 37.462 C111.64 35.212 117.925 32.103 124.148 28.812 C127.607 27.295 131.295 26.652 135 26 C132.822 28.394 130.786 29.775 127.867 31.156 C127.06 31.539 126.253 31.922 125.422 32.316 C125.002 32.512 125.002 32.512 122.875 33.5 C122.058 33.891 121.24 34.281 120.398 34.684 C108.421 40.312 98.259 43.685 85.062 40.25 C84.357 40.071 83.652 39.892 82.926 39.708 C77.83 38.357 73.619 36.475 69 34 C67.573 33.607 66.134 33.253 64.688 32.938 C61 32 61 32 59.656 30.641 C57.335 28.341 54.749 27.235 51.812 25.812 C50.555 25.198 49.297 24.584 48.039 23.969 C47.381 23.649 46.722 23.329 46.044 23 C43.269 21.642 40.513 20.248 37.756 18.856 C32.293 16.1 26.831 13.418 21.211 10.996 C17.351 9.257 13.598 7.303 9.82 5.395 C6.591 3.798 3.334 2.364 0 1 C0 0.67 0 0.34 0 0 Z " fill="#FDF6CD" transform="translate(60,163)"/>
<path d="M0 0 C5.548 0.444 8.469 1.885 13 5 C15.32 5.85 17.591 6.422 20 7 C20 7.66 20 8.32 20 9 C20.949 9.124 21.898 9.248 22.875 9.375 C26 10 26 10 28 12 C29.688 12.603 31.4 13.139 33.125 13.625 C34.035 13.885 34.945 14.146 35.883 14.414 C36.581 14.607 37.28 14.801 38 15 C38 15.66 38 16.32 38 17 C38.907 17.124 39.815 17.248 40.75 17.375 C43.59 17.921 45.526 18.573 48 20 C48 20.66 48 21.32 48 22 C69.583 21.561 69.583 21.561 76 17 C76.491 16.475 76.982 15.951 77.488 15.41 C79.934 13.128 82.777 13.304 86 13 C86 12.34 86 11.68 86 11 C86.641 10.758 87.281 10.515 87.941 10.266 C92.124 8.645 96.111 7.044 99.938 4.688 C100.948 4.131 101.959 3.574 103 3 C103.99 3.33 104.98 3.66 106 4 C96.905 9.512 87.619 14.471 78 19 C77.436 19.267 77.436 19.267 74.582 20.617 C63.215 25.518 52.807 25.261 41.168 21.277 C36.892 19.553 32.818 17.534 28.742 15.383 C26.289 14.146 23.91 13.191 21.312 12.312 C20.766 12.096 20.766 12.096 18 11 C17.67 10.01 17.34 9.02 17 8 C16.319 7.897 15.639 7.794 14.938 7.688 C9.533 6.423 4.611 4.074 0 1 C0 0.67 0 0.34 0 0 Z " fill="#EAC85B" transform="translate(98,178)"/>
<path d="M0 0 C0.66 0 1.32 0 2 0 C2.116 10.145 2.205 20.289 2.259 30.435 C2.285 35.146 2.32 39.857 2.377 44.569 C2.432 49.12 2.461 53.672 2.474 58.224 C2.484 59.955 2.502 61.687 2.529 63.418 C2.796 81.192 2.796 81.192 -3 88 C-6.597 91.692 -9.98 94.479 -15 96 C-15 95.34 -15 94.68 -15 94 C-14.34 94 -13.68 94 -13 94 C-13 93.34 -13 92.68 -13 92 C-11.469 90.922 -11.469 90.922 -9.5 89.75 C-7.559 88.441 -7.559 88.441 -6 87 C-5.562 83.688 -5.562 83.688 -6 81 C-5.01 81.33 -4.02 81.66 -3 82 C-0.616 78.293 -0.694 74.649 -0.681 70.386 C-0.671 69.624 -0.661 68.863 -0.651 68.079 C-0.62 65.568 -0.603 63.058 -0.586 60.547 C-0.567 58.804 -0.548 57.061 -0.527 55.318 C-0.476 50.734 -0.436 46.151 -0.399 41.568 C-0.359 36.889 -0.308 32.21 -0.258 27.531 C-0.161 18.354 -0.077 9.177 0 0 Z " fill="#C29B35" transform="translate(349,125)"/>
<path d="M0 0 C-4.841 3.062 -8.293 4.534 -14 5 C-14 5.99 -14 6.98 -14 8 C-15.267 8.674 -16.539 9.339 -17.812 10 C-18.52 10.371 -19.228 10.743 -19.957 11.125 C-22 12 -22 12 -25 12 C-25.33 13.65 -25.66 15.3 -26 17 C-26.66 17 -27.32 17 -28 17 C-28.66 19.97 -29.32 22.94 -30 26 C-28.35 25.34 -26.7 24.68 -25 24 C-25 25.65 -25 27.3 -25 29 C-26.32 29 -27.64 29 -29 29 C-29 28.34 -29 27.68 -29 27 C-30.32 27 -31.64 27 -33 27 C-33.33 50.1 -33.66 73.2 -34 97 C-34.33 97 -34.66 97 -35 97 C-35.093 88.046 -35.164 79.092 -35.207 70.138 C-35.228 65.979 -35.256 61.82 -35.302 57.662 C-35.346 53.642 -35.369 49.622 -35.38 45.602 C-35.387 44.075 -35.401 42.548 -35.423 41.021 C-35.59 28.762 -33.862 19.631 -26 10 C-22.904 7.004 -20.243 6.482 -16 6 C-16 5.34 -16 4.68 -16 4 C-15.301 3.723 -14.603 3.446 -13.883 3.16 C-12.973 2.798 -12.063 2.436 -11.125 2.062 C-10.22 1.703 -9.315 1.343 -8.383 0.973 C-3.458 -1.037 -3.458 -1.037 0 0 Z " fill="#E5C96F" transform="translate(48,126)"/>
<path d="M0 0 C0.532 -0.003 0.532 -0.003 3.227 -0.017 C10.928 0.056 10.928 0.056 14.312 2.312 C13.654 2.302 12.995 2.292 12.316 2.281 C-1.002 2.097 -13.714 1.948 -26.688 5.312 C-26.688 5.972 -26.688 6.632 -26.688 7.312 C-27.496 7.639 -28.304 7.965 -29.137 8.301 C-30.205 8.738 -31.274 9.175 -32.375 9.625 C-33.431 10.054 -34.486 10.484 -35.574 10.926 C-38.688 12.312 -38.688 12.312 -41.27 13.918 C-44.508 15.786 -47.534 16.139 -51.188 16.688 C-53.688 17.312 -53.688 17.312 -55.934 18.672 C-59.689 20.909 -63.614 22.187 -67.75 23.562 C-68.552 23.844 -69.355 24.125 -70.182 24.414 C-70.57 24.544 -70.57 24.544 -72.535 25.203 C-72.886 25.322 -72.886 25.322 -74.66 25.923 C-76.984 26.37 -78.458 26.042 -80.688 25.312 C-76.919 23.737 -73.147 22.171 -69.372 20.613 C-68.088 20.082 -66.806 19.548 -65.525 19.012 C-63.681 18.241 -61.833 17.48 -59.984 16.719 C-58.874 16.258 -57.764 15.797 -56.62 15.322 C-53.688 14.312 -53.688 14.312 -49.688 14.312 C-49.688 13.653 -49.688 12.993 -49.688 12.312 C-48.532 12.148 -48.532 12.148 -42.688 11.312 C-42.688 10.653 -42.688 9.993 -42.688 9.312 C-28.337 3.554 -15.557 0.081 0 0 Z " fill="#E9C754" transform="translate(226.6875,59.6875)"/>
<path d="M0 0 C4.377 -0.657 6.705 0.17 10.188 2.688 C14.916 6.532 17.039 9.988 18 16 C18.085 18.177 18.118 20.356 18.114 22.534 C18.113 23.835 18.113 25.136 18.113 26.477 C18.108 27.887 18.103 29.297 18.098 30.707 C18.096 32.157 18.094 33.607 18.093 35.058 C18.09 38.863 18.08 42.669 18.069 46.475 C18.058 50.363 18.054 54.251 18.049 58.139 C18.038 65.759 18.021 73.38 18 81 C17.34 81 16.68 81 16 81 C15.996 80.203 15.993 79.407 15.989 78.586 C15.951 71.054 15.894 63.522 15.816 55.99 C15.777 52.118 15.744 48.246 15.729 44.375 C15.714 40.633 15.679 36.892 15.632 33.151 C15.617 31.728 15.609 30.306 15.608 28.884 C15.599 20.887 15.473 14.776 11 8 C8.711 5.977 8.711 5.977 6.375 4.625 C3.922 3.166 2.026 2.026 0 0 Z " fill="#F9EAB3" transform="translate(132,209)"/>
<path d="M0 0 C4.21 1.307 8.023 2.916 11.938 4.938 C16.24 7.129 20.532 9.172 25 11 C25 11.66 25 12.32 25 13 C25.33 13.052 25.33 13.052 27 13.312 C30.838 14.192 34.331 15.57 38 17 C38 17.66 38 18.32 38 19 C39.031 19.248 40.062 19.495 41.125 19.75 C44.941 20.827 47.744 22.735 51 25 C51.775 25.307 52.549 25.614 53.348 25.93 C56.206 27.083 58.687 28.515 61.312 30.125 C61.754 30.394 61.754 30.394 63.988 31.758 C64.652 32.168 65.316 32.578 66 33 C63 34 63 34 59.77 32.629 C58.445 31.95 57.127 31.26 55.812 30.562 C54.362 29.813 52.912 29.065 51.461 28.316 C50.719 27.93 49.978 27.543 49.214 27.145 C46.465 25.723 43.694 24.35 40.919 22.979 C34.295 19.705 27.753 16.299 21.244 12.802 C8.014 5.702 8.014 5.702 3.289 4.055 C2.534 3.707 1.778 3.359 1 3 C0.67 2.01 0.34 1.02 0 0 Z " fill="#FDF7D3" transform="translate(69,175)"/>
<path d="M0 0 C0.33 0 0.66 0 1 0 C1.006 0.78 1.012 1.559 1.018 2.362 C1.076 9.747 1.148 17.131 1.236 24.516 C1.28 28.311 1.32 32.106 1.346 35.902 C1.373 39.572 1.413 43.242 1.463 46.912 C1.48 48.304 1.491 49.697 1.498 51.09 C1.534 58.447 1.826 65.026 4.343 71.985 C5.225 74.692 5.223 77.181 5 80 C5.99 80 6.98 80 8 80 C8 80.99 8 81.98 8 83 C8.289 83.124 8.289 83.124 9.75 83.75 C12.3 85.167 14.018 86.876 16 89 C14.219 89.645 14.219 89.645 12 90 C6.24 87.208 3.792 82.132 1.727 76.367 C1.487 75.586 1.247 74.805 1 74 C0.911 73.717 0.911 73.717 0.462 72.282 C-0.162 69.199 -0.119 66.265 -0.114 63.12 C-0.114 62.437 -0.114 61.753 -0.114 61.049 C-0.113 58.799 -0.106 56.548 -0.098 54.297 C-0.096 52.733 -0.094 51.169 -0.093 49.606 C-0.09 45.496 -0.08 41.386 -0.069 37.276 C-0.058 33.08 -0.054 28.884 -0.049 24.688 C-0.038 16.458 -0.021 8.229 0 0 Z " fill="#CDAA3E" transform="translate(14,156)"/>
<path d="M0 0 C5.299 1.298 9.345 3.15 14 6 C14 6.66 14 7.32 14 8 C14.846 8.206 15.691 8.412 16.562 8.625 C21.935 10.774 25.635 13.68 28.583 18.689 C31.087 24.743 30.366 31.472 30.293 37.902 C30.287 39.35 30.283 40.797 30.28 42.244 C30.269 46.034 30.239 49.823 30.206 53.612 C30.175 57.487 30.162 61.362 30.146 65.236 C30.114 72.824 30.063 80.412 30 88 C29.67 88 29.34 88 29 88 C28.997 87.605 28.997 87.605 28.982 85.604 C28.924 78.144 28.852 70.685 28.764 63.225 C28.72 59.391 28.68 55.556 28.654 51.721 C28.628 48.018 28.587 44.316 28.537 40.614 C28.52 39.203 28.509 37.792 28.502 36.381 C28.493 34.402 28.463 32.422 28.432 30.443 C28.421 29.317 28.41 28.191 28.399 27.031 C27.953 23.639 27.023 21.735 25 19 C24.34 18.67 23.68 18.34 23 18 C23 16.68 23 15.36 23 14 C22.319 13.752 21.639 13.505 20.938 13.25 C17.431 11.758 14.284 9.932 11 8 C11 7.34 11 6.68 11 6 C8.69 6 6.38 6 4 6 C4 5.34 4 4.68 4 4 C3.01 3.67 2.02 3.34 1 3 C0.67 2.01 0.34 1.02 0 0 Z " fill="#D9B550" transform="translate(118,202)"/>
<path d="M0 0 C1.606 0.283 3.21 0.577 4.812 0.875 C5.259 0.956 5.259 0.956 7.52 1.367 C10 2 10 2 13 4 C13 4.66 13 5.32 13 6 C13.536 6.062 13.536 6.062 16.25 6.375 C19.986 6.998 22.705 7.453 25.184 10.414 C27.785 12.685 30.549 13.416 33.812 14.5 C38.42 16.041 42.699 17.734 47 20 C47 20.66 47 21.32 47 22 C48.65 22 50.3 22 52 22 C52.165 22.33 52.165 22.33 53 24 C53.825 24.309 54.65 24.619 55.5 24.938 C56.325 25.288 57.15 25.639 58 26 C58.165 26.495 58.165 26.495 59 29 C53.845 27.068 49.031 24.529 44.146 22.01 C39.52 19.659 34.881 17.765 30 16 C27.649 15.035 25.329 14.019 23 13 C23 12.34 23 11.68 23 11 C22.134 10.918 21.267 10.835 20.375 10.75 C16.455 9.879 14.325 8.238 11 6 C8.382 4.896 5.745 3.896 3.074 2.93 C1 2 1 2 0 0 Z " fill="#D7B556" transform="translate(58,261)"/>
<path d="M0 0 C-8.183 6.597 -19.234 9.955 -28.883 13.95 C-35.194 16.59 -41.266 19.555 -47.312 22.75 C-50 24 -50 24 -53 24 C-53 23.34 -53 22.68 -53 22 C-51.68 22 -50.36 22 -49 22 C-48.67 21.01 -48.34 20.02 -48 19 C-45.891 17.613 -45.891 17.613 -43.25 16.312 C-42.819 16.094 -42.819 16.094 -40.641 14.988 C-37.89 13.959 -35.909 13.806 -33 14 C-33 13.34 -33 12.68 -33 12 C-31.845 11.835 -31.845 11.835 -26 11 C-26 10.34 -26 9.68 -26 9 C-24.273 8.35 -22.543 7.705 -20.812 7.062 C-19.85 6.703 -18.887 6.343 -17.895 5.973 C-15.263 5.088 -12.731 4.474 -10 4 C-10 3.34 -10 2.68 -10 2 C-6.492 0.396 -3.856 -0.22 0 0 Z " fill="#C19D35" transform="translate(264,256)"/>
<path d="M0 0 C3.63 0 7.26 0 11 0 C11.33 1.32 11.66 2.64 12 4 C12.99 4.33 13.98 4.66 15 5 C15.33 6.65 15.66 8.3 16 10 C13.13 11.634 10.253 13.255 7.375 14.875 C6.567 15.335 5.759 15.795 4.926 16.27 C0.727 18.625 -3.283 20.853 -8 22 C-8.66 21.67 -9.32 21.34 -10 21 C-9 18 -9 18 -6.742 16.719 C-5.796 16.317 -4.85 15.914 -3.875 15.5 C-2.886 15.073 -1.898 14.647 -0.879 14.207 C0.071 13.809 1.021 13.41 2 13 C3.396 12.396 4.792 11.792 6.188 11.188 C6.652 10.992 6.652 10.992 9 10 C9.042 7.667 9.041 5.333 9 3 C8 2 8 2 6.152 1.902 C4.102 1.935 2.051 1.967 0 2 C0 1.34 0 0.68 0 0 Z " fill="#E3B73D" transform="translate(324,120)"/>
<path d="M0 0 C-2.262 2.262 -3.93 2.516 -6.945 3.305 C-10.113 4.377 -12.858 6.102 -15.742 7.773 C-18.423 9.23 -21.138 10.236 -24.008 11.25 C-33.391 14.783 -33.391 14.783 -35 18 C-36.742 18.633 -36.742 18.633 -38.875 19.125 C-39.574 19.293 -40.272 19.46 -40.992 19.633 C-43 20 -43 20 -46 20 C-41.89 15.198 -37.644 13.262 -31.812 11 C-30.1 10.311 -28.39 9.62 -26.68 8.926 C-25.866 8.597 -25.052 8.267 -24.214 7.928 C-21.548 6.811 -18.992 5.538 -16.438 4.188 C-4.256 -2.128 -4.256 -2.128 0 0 Z " fill="#F9F0CC" transform="translate(276,254)"/>
<path d="M0 0 C5.938 1.149 11.261 2.753 16.836 5.098 C18.529 5.804 20.26 6.42 22 7 C22 7.66 22 8.32 22 9 C23.072 9.206 24.145 9.412 25.25 9.625 C30.232 10.851 34.504 13.19 39.031 15.551 C41.658 16.833 44.146 17.783 46.938 18.625 C50.631 19.746 53.148 21.332 56 24 C50.955 23.495 47.481 22.286 43 20 C41.59 19.638 40.173 19.305 38.75 19 C35 18 35 18 33 15 C30.875 14.312 30.875 14.312 29 14 C29 13.34 29 12.68 29 12 C27.886 11.856 26.772 11.711 25.625 11.562 C22 11 22 11 20 10 C20 9.34 20 8.68 20 8 C19.151 7.885 18.301 7.771 17.426 7.652 C13.808 6.963 10.622 5.885 7.188 4.562 C6.047 4.131 4.906 3.699 3.73 3.254 C1 2 1 2 0 0 Z " fill="#E9C753" transform="translate(242,62)"/>
<path d="M0 0 C1.32 0.33 2.64 0.66 4 1 C4.33 2.65 4.66 4.3 5 6 C5.66 6 6.32 6 7 6 C10.24 16.028 10.396 25.397 10.293 35.797 C10.287 37.484 10.283 39.17 10.28 40.857 C10.269 45.257 10.239 49.656 10.206 54.055 C10.175 58.56 10.162 63.065 10.146 67.57 C10.114 76.38 10.063 85.19 10 94 C9.67 94 9.34 94 9 94 C9 69.25 9 44.5 9 19 C8.34 19 7.68 19 7 19 C6.67 15.37 6.34 11.74 6 8 C5.34 8 4.68 8 4 8 C2.68 5.36 1.36 2.72 0 0 Z " fill="#E2C987" transform="translate(342,106)"/>
<path d="M0 0 C0.869 0.338 1.738 0.675 2.633 1.023 C3.785 1.469 4.938 1.915 6.125 2.375 C7.262 2.816 8.399 3.257 9.57 3.711 C11.726 4.521 13.897 5.294 16.086 6.012 C25.504 9.206 34.418 14.023 43 19 C40.262 20.099 39.24 20.102 36.477 18.926 C36.006 18.66 36.006 18.66 33.625 17.312 C27.9 14.267 22.326 12.543 16.031 11.055 C12.699 9.895 11.366 8.543 9 6 C5.375 4.812 5.375 4.812 2 4 C1.34 3.67 0.68 3.34 0 3 C0 2.01 0 1.02 0 0 Z " fill="#EAC23C" transform="translate(299,86)"/>
<path d="M0 0 C-3.609 3.075 -7.611 4.694 -11.938 6.5 C-16.508 8.419 -20.763 10.406 -25 13 C-26.588 13.705 -28.193 14.372 -29.812 15 C-30.679 15.336 -31.545 15.673 -32.438 16.02 C-32.86 16.181 -32.86 16.181 -35 17 C-35.371 17.146 -35.371 17.146 -37.25 17.887 C-40.805 19.267 -44.227 20.41 -48 21 C-48 20.34 -48 19.68 -48 19 C-46.667 18.333 -46.667 18.333 -40 15 C-39.371 14.649 -38.742 14.299 -38.094 13.938 C-35.506 12.779 -33.044 12.341 -30.25 11.875 C-29.265 11.707 -28.28 11.54 -27.266 11.367 C-26.518 11.246 -25.77 11.125 -25 11 C-25 10.34 -25 9.68 -25 9 C-24.371 8.769 -23.742 8.539 -23.094 8.301 C-18.686 6.621 -14.705 4.935 -10.812 2.25 C-7.01 -0.282 -4.503 -0.469 0 0 Z " fill="#BF9B33" transform="translate(211,280)"/>
<path d="M0 0 C6.161 -0.804 9.257 1.102 14.387 4.41 C18.382 6.841 22.62 8.402 27 10 C28.438 10.541 29.875 11.083 31.312 11.625 C32.529 12.079 33.746 12.533 35 13 C35.719 13.345 36.439 13.691 37.18 14.047 C41.047 15.354 44.755 15.462 48.812 15.625 C49.207 15.644 49.207 15.644 51.201 15.742 C53.134 15.836 55.067 15.919 57 16 C57 16.33 57 16.66 57 17 C50.432 17.891 44.547 17.965 38 17 C36.783 16.897 35.566 16.794 34.312 16.688 C30.398 15.875 28.287 14.256 25 12 C22.468 10.905 19.905 9.925 17.328 8.941 C14.7 7.879 12.397 6.507 10 5 C8.348 4.298 6.681 3.63 5 3 C3.333 2.333 1.667 1.667 0 1 C0 0.67 0 0.34 0 0 Z " fill="#FEF8DB" transform="translate(107,288)"/>
<path d="M0 0 C0 2.97 0 5.94 0 9 C-1.958 9.195 -3.916 9.38 -5.875 9.562 C-6.966 9.667 -8.056 9.771 -9.18 9.879 C-12 10 -12 10 -14 9 C-14.594 6.351 -14.742 3.708 -15 1 C-14.578 1.006 -14.578 1.006 -12.445 1.035 C-11.35 1.044 -10.254 1.053 -9.125 1.062 C-8.58 1.068 -8.58 1.068 -5.82 1.098 C-3.536 1.019 -2.071 0 0 0 Z " fill="#EFB825" transform="translate(162,292)"/>
<path d="M0 0 C5.475 0.472 9.116 1.346 14 4 C15.072 4.309 16.145 4.619 17.25 4.938 C20 6 20 6 21 8.062 C21.33 8.702 21.66 9.341 22 10 C31.623 12.816 42.291 10.433 52 9 C51.67 9.66 51.34 10.32 51 11 C39.389 14.603 26.037 14.638 15.082 9.016 C13.374 8.035 11.686 7.018 10 6 C8.758 5.46 7.508 4.939 6.25 4.438 C3.422 3.187 1.907 2.356 0 0 Z " fill="#DEBE5F" transform="translate(118,290)"/>
<path d="M0 0 C3.727 0.358 6.008 1.48 9.25 3.312 C10.034 3.704 10.818 4.096 11.625 4.5 C12.161 4.768 12.698 5.036 13.25 5.312 C13.25 5.972 13.25 6.632 13.25 7.312 C14.088 7.404 14.926 7.496 15.789 7.59 C19.767 8.421 23.063 9.997 26.625 11.875 C27.266 12.204 27.906 12.534 28.566 12.873 C30.131 13.679 31.691 14.495 33.25 15.312 C27.495 17.231 22.464 14.007 17.312 11.438 C14.508 10.007 11.715 8.564 8.945 7.066 C4.636 4.778 1.129 3.719 -3.75 3.312 C-3.42 5.292 -3.09 7.273 -2.75 9.312 C-3.41 9.312 -4.07 9.312 -4.75 9.312 C-4.875 5.938 -4.875 5.938 -4.75 2.312 C-2.75 0.312 -2.75 0.312 0 0 Z " fill="#FDF3C0" transform="translate(32.75,147.6875)"/>
<path d="M0 0 C1.238 3.829 1.134 7.637 1.114 11.614 C1.114 12.376 1.114 13.137 1.114 13.921 C1.113 16.432 1.105 18.943 1.098 21.453 C1.096 23.196 1.094 24.939 1.093 26.682 C1.09 31.266 1.08 35.849 1.069 40.432 C1.058 45.111 1.054 49.79 1.049 54.469 C1.038 63.646 1.021 72.823 1 82 C-2.958 78.042 -2.128 71.479 -2.145 66.15 C-2.149 65.505 -2.152 64.86 -2.155 64.196 C-2.165 62.088 -2.167 59.979 -2.168 57.871 C-2.171 56.393 -2.175 54.916 -2.178 53.438 C-2.184 50.351 -2.186 47.263 -2.185 44.176 C-2.185 40.23 -2.199 36.284 -2.216 32.337 C-2.227 29.289 -2.229 26.241 -2.229 23.193 C-2.23 21.738 -2.234 20.283 -2.242 18.829 C-2.252 16.793 -2.248 14.756 -2.243 12.72 C-2.244 11.565 -2.246 10.409 -2.247 9.218 C-1.989 5.856 -1.199 3.14 0 0 Z " fill="#FEFCE6" transform="translate(12,148)"/>
<path d="M0 0 C-15.703 7.938 -15.703 7.938 -22.652 10.938 C-29.311 13.951 -35.817 17.346 -42.301 20.715 C-45 22 -45 22 -47 22 C-47 22.66 -47 23.32 -47 24 C-49.31 24.66 -51.62 25.32 -54 26 C-53 23 -53 23 -49.973 21.352 C-48.674 20.766 -47.37 20.191 -46.062 19.625 C-44.696 19.01 -43.33 18.394 -41.965 17.777 C-41.292 17.477 -40.619 17.176 -39.925 16.867 C-37.302 15.686 -34.709 14.451 -32.125 13.188 C-31.344 12.81 -30.563 12.432 -29.758 12.043 C-28 11 -28 11 -27 9 C-25.355 8.359 -25.355 8.359 -23.188 7.75 C-18.029 6.144 -13.387 3.79 -8.602 1.305 C-3.604 -1.201 -3.604 -1.201 0 0 Z " fill="#E7C149" transform="translate(260,155)"/>
<path d="M0 0 C6.64 0.572 11.243 1.781 16.562 6.062 C19.98 8.779 23.174 9.786 27.375 10.875 C31.402 12.125 34.416 13.806 38 16 C38 16.66 38 17.32 38 18 C31.552 16.892 26.367 14.959 20.688 11.75 C19.214 10.943 17.74 10.137 16.266 9.332 C15.548 8.937 14.831 8.542 14.092 8.135 C9.463 5.623 4.726 3.322 0 1 C0 0.67 0 0.34 0 0 Z " fill="#ECCB61" transform="translate(60,160)"/>
<path d="M0 0 C4.09 0.11 6.673 1.269 10.25 3.312 C11.765 3.992 13.286 4.658 14.812 5.312 C18.128 6.764 21.146 8.45 24.25 10.312 C26.563 11 26.563 11 28.25 11.312 C28.25 12.303 28.25 13.292 28.25 14.312 C23.528 12.778 18.891 11.073 14.25 9.312 C14.25 8.653 14.25 7.993 14.25 7.312 C13.714 7.209 13.177 7.106 12.625 7 C10.25 6.312 10.25 6.312 7.375 4.75 C4.012 3.203 1.904 2.973 -1.75 3.312 C-3.718 5.281 -3.412 8.661 -3.75 11.312 C-4.74 10.982 -5.73 10.653 -6.75 10.312 C-5.799 0.483 -5.799 0.483 0 0 Z " fill="#E9C54D" transform="translate(31.75,145.6875)"/>
<path d="M0 0 C0.99 0.33 1.98 0.66 3 1 C-3.625 5.015 -10.331 8.771 -17.25 12.25 C-17.898 12.579 -18.547 12.907 -19.215 13.246 C-31.679 19.44 -31.679 19.44 -36 18 C-35.385 17.746 -34.77 17.492 -34.137 17.23 C-33.328 16.886 -32.52 16.542 -31.688 16.188 C-30.887 15.851 -30.086 15.515 -29.262 15.168 C-27 14 -27 14 -25.438 12.406 C-23.065 10.085 -20.186 10.301 -17 10 C-17 9.34 -17 8.68 -17 8 C-16.68 7.879 -16.68 7.879 -15.059 7.266 C-10.876 5.645 -6.889 4.044 -3.062 1.688 C-2.052 1.131 -1.041 0.574 0 0 Z " fill="#E6C247" transform="translate(201,181)"/>
<path d="M0 0 C-1.408 0.962 -2.819 1.918 -4.246 2.852 C-5.885 3.924 -7.506 5.024 -9.125 6.125 C-13.975 8.906 -19.535 9.318 -25 10 C-25 10.66 -25 11.32 -25 12 C-27.64 12 -30.28 12 -33 12 C-29.994 8.994 -27.176 9.404 -23 9 C-23 8.34 -23 7.68 -23 7 C-19.546 5.633 -16.086 4.284 -12.625 2.938 C-11.64 2.548 -10.655 2.158 -9.641 1.756 C-8.7 1.392 -7.759 1.028 -6.789 0.652 C-6.354 0.482 -6.354 0.482 -4.155 -0.379 C-2 -1 -2 -1 0 0 Z " fill="#EDC954" transform="translate(141,88)"/>
<path d="M0 0 C0.33 0 0.66 0 1 0 C1.33 19.14 1.66 38.28 2 58 C3.65 58.33 5.3 58.66 7 59 C7 57.02 7 55.04 7 53 C7.33 53 7.66 53 8 53 C8 55.64 8 58.28 8 61 C5.36 61 2.72 61 0 61 C0 40.87 0 20.74 0 0 Z " fill="#FEFEE6" transform="translate(150,230)"/>
<path d="M0 0 C0.299 0.103 0.299 0.103 1.812 0.625 C-5.322 5.076 -12.637 8.933 -20.188 12.625 C-21.73 13.416 -23.271 14.207 -24.812 15 C-28.188 16.625 -28.188 16.625 -30.188 16.625 C-30.188 15.965 -30.188 15.305 -30.188 14.625 C-29.569 14.357 -28.95 14.089 -28.312 13.812 C-26.188 12.625 -26.188 12.625 -24.188 9.625 C-22.121 8.852 -22.121 8.852 -19.625 8.25 C-14.164 6.754 -4.941 -0.847 0 0 Z " fill="#C29F3A" transform="translate(332.1875,221.375)"/>
<path d="M0 0 C0.889 0.003 1.779 0.006 2.695 0.01 C3.616 0.018 4.536 0.027 5.484 0.035 C6.42 0.04 7.356 0.044 8.32 0.049 C10.625 0.061 12.93 0.077 15.234 0.098 C15.234 0.428 15.234 0.758 15.234 1.098 C8.964 1.428 2.694 1.758 -3.766 2.098 C-4.096 2.758 -4.426 3.418 -4.766 4.098 C-7.174 4.784 -7.174 4.784 -10.332 5.387 C-11.457 5.606 -12.581 5.825 -13.74 6.051 C-14.332 6.162 -14.332 6.162 -17.328 6.723 C-18.516 6.952 -19.704 7.182 -20.928 7.418 C-23.872 7.986 -26.818 8.545 -29.766 9.098 C-28.766 7.098 -28.766 7.098 -26.88 6.336 C-26.072 6.101 -25.265 5.867 -24.434 5.625 C-23.553 5.365 -22.671 5.106 -21.764 4.838 C-20.836 4.573 -19.909 4.308 -18.953 4.035 C-18.037 3.766 -17.121 3.498 -16.178 3.221 C-13.71 2.5 -11.242 1.786 -8.766 1.098 C-8.106 0.907 -7.447 0.716 -6.768 0.52 C-4.462 0.034 -2.356 -0.015 0 0 Z " fill="#FEFAD6" transform="translate(218.765625,56.90234375)"/>
<path d="M0 0 C0.299 0.103 0.299 0.103 1.812 0.625 C-2.521 2.792 -2.521 2.792 -24.188 13.625 C-23.867 11.258 -23.867 11.258 -23.188 8.625 C-18.372 5.065 -13.427 3.71 -7.641 2.336 C-4.616 1.459 -3.174 -0.544 0 0 Z " fill="#E4BB4B" transform="translate(236.1875,182.375)"/>
<path d="M0 0 C5.878 0.447 10.125 1.708 15.25 4.688 C16.547 5.412 17.846 6.134 19.145 6.855 C19.786 7.216 20.427 7.576 21.088 7.947 C25.643 10.456 30.334 12.706 35 15 C35 15.66 35 16.32 35 17 C30.924 15.768 27.615 14.224 24 12 C23.246 11.7 22.492 11.399 21.715 11.09 C18.756 9.902 15.964 8.512 13.125 7.062 C8.801 4.879 4.482 2.834 0 1 C0 0.67 0 0.34 0 0 Z " fill="#FEF9D4" transform="translate(60,163)"/>
<path d="M0 0 C-0.99 0.33 -1.98 0.66 -3 1 C-3 1.66 -3 2.32 -3 3 C-3.797 3.326 -4.593 3.652 -5.414 3.988 C-15.131 7.996 -15.131 7.996 -18.625 9.812 C-21 11 -21 11 -23 11 C-22.812 9.125 -22.812 9.125 -22 7 C-19.438 5.75 -19.438 5.75 -17 5 C-17 4.01 -17 3.02 -17 2 C-16.693 2.012 -16.693 2.012 -15.137 2.07 C-14.733 2.079 -14.733 2.079 -12.688 2.125 C-12.287 2.137 -12.287 2.137 -10.262 2.195 C-6.316 1.855 -4.293 -0.232 0 0 Z " fill="#C39F37" transform="translate(287,245)"/>
<path d="M0 0 C10.541 1.121 20.193 5.129 29 11 C19.808 9.655 11.609 6.392 3 3 C3 2.34 3 1.68 3 1 C2.01 0.67 1.02 0.34 0 0 Z " fill="#FEF7D0" transform="translate(261,68)"/>
<path d="M0 0 C-11.172 8.658 -21.407 8.599 -35 8 C-35 7.67 -35 7.34 -35 7 C-33.744 6.914 -32.489 6.827 -31.195 6.738 C-15.371 5.471 -15.371 5.471 -7.957 1.043 C-5.265 -0.392 -2.985 -0.393 0 0 Z " fill="#FBEAB9" transform="translate(182,296)"/>
<path d="M0 0 C7.695 1.903 14.179 4.993 21 9 C21 9.33 21 9.66 21 10 C12.927 10.404 12.927 10.404 9 7 C7.02 6.276 5.022 5.597 3 5 C3 4.01 3 3.02 3 2 C2.01 1.67 1.02 1.34 0 1 C0 0.67 0 0.34 0 0 Z " fill="#F9ECBC" transform="translate(91,278)"/>
<path d="M0 0 C6.75 0.875 6.75 0.875 9 2 C9 2.99 9 3.98 9 5 C9.626 5.133 10.253 5.266 10.898 5.402 C11.307 5.491 11.307 5.491 13.375 5.938 C14.187 6.112 14.999 6.286 15.836 6.465 C18 7 18 7 20 8 C20 8.66 20 9.32 20 10 C21.65 10 23.3 10 25 10 C25 10.99 25 11.98 25 13 C15.857 10.551 8.109 5.746 0 1 C0 0.67 0 0.34 0 0 Z " fill="#D7B657" transform="translate(33,248)"/>
<path d="M0 0 C0.33 0.66 0.66 1.32 1 2 C-1.672 8.68 -7.036 13.251 -13 17 C-13.66 17 -14.32 17 -15 17 C-15 16.34 -15 15.68 -15 15 C-14.34 15 -13.68 15 -13 15 C-13 14.34 -13 13.68 -13 13 C-11.469 11.922 -11.469 11.922 -9.5 10.75 C-7.559 9.441 -7.559 9.441 -6 8 C-5.562 4.688 -5.562 4.688 -6 2 C-5.01 2.33 -4.02 2.66 -3 3 C-3 2.34 -3 1.68 -3 1 C-2.01 0.67 -1.02 0.34 0 0 Z " fill="#C8A439" transform="translate(349,204)"/>
<path d="M0 0 C3.309 0.945 5.894 1.928 8.75 3.875 C12.32 6.209 15.84 7.608 19.828 9.07 C22 10 22 10 24 12 C19.259 12.463 16.805 11.479 12.812 8.957 C9.929 7.435 7.226 7.263 4 7 C4.33 5.68 4.66 4.36 5 3 C3.68 3 2.36 3 1 3 C0.67 2.01 0.34 1.02 0 0 Z " fill="#D9B853" transform="translate(54,170)"/>
<path d="M0 0 C3.189 -0.478 5.314 -0.412 8.109 1.266 C10.91 3.372 13.521 5.521 16 8 C16.27 10.688 16.087 13.291 16 16 C14 13 14 13 12.5 10.188 C9.946 6.259 6.067 4.412 2.047 2.199 C1.371 1.803 0.696 1.408 0 1 C0 0.67 0 0.34 0 0 Z " fill="#F9ECBE" transform="translate(132,209)"/>
<path d="M0 0 C3.63 0 7.26 0 11 0 C11.33 1.32 11.66 2.64 12 4 C12.99 4.33 13.98 4.66 15 5 C15.33 6.65 15.66 8.3 16 10 C13 12 13 12 10 12 C9.939 11.362 9.879 10.724 9.816 10.066 C9.733 9.24 9.649 8.414 9.562 7.562 C9.481 6.739 9.4 5.915 9.316 5.066 C9 3 9 3 8 2 C5.329 1.859 2.676 1.958 0 2 C0 1.34 0 0.68 0 0 Z " fill="#EDBC2F" transform="translate(324,120)"/>
<path d="M0 0 C-17.807 7.189 -17.807 7.189 -23 8 C-23 7.34 -23 6.68 -23 6 C-20.333 4.667 -17.667 3.333 -15 2 C-14.348 1.64 -13.695 1.281 -13.023 0.91 C-10.756 -0.11 -8.844 -0.436 -6.375 -0.688 C-5.987 -0.731 -5.987 -0.731 -4.023 -0.949 C-2 -1 -2 -1 0 0 Z " fill="#C6A23E" transform="translate(186,293)"/>
<path d="M0 0 C-1.32 0.33 -2.64 0.66 -4 1 C-4 1.66 -4 2.32 -4 3 C-23.001 9.524 -23.001 9.524 -28 8 C-24.38 6.684 -21.904 6 -18 6 C-18 5.34 -18 4.68 -18 4 C-17.157 3.723 -16.314 3.446 -15.445 3.16 C-14.35 2.798 -13.254 2.436 -12.125 2.062 C-11.034 1.703 -9.944 1.343 -8.82 0.973 C-3.209 -0.963 -3.209 -0.963 0 0 Z " fill="#EBC956" transform="translate(90,109)"/>
<path d="M0 0 C3.232 0.717 6.187 1.813 9.25 3.062 C10.142 3.425 11.034 3.787 11.953 4.16 C12.291 4.299 12.291 4.299 14 5 C14 5.66 14 6.32 14 7 C15.65 7 17.3 7 19 7 C19.33 7.66 19.66 8.32 20 9 C20.825 9.309 21.65 9.619 22.5 9.938 C23.325 10.288 24.15 10.639 25 11 C25.33 11.99 25.66 12.98 26 14 C20.762 12.036 15.86 9.456 10.883 6.922 C7.306 5.113 3.759 3.41 0 2 C0 1.34 0 0.68 0 0 Z " fill="#D2B045" transform="translate(91,276)"/>
<path d="M0 0 C-11.719 5.859 -11.719 5.859 -13.848 6.916 C-15.322 7.659 -16.788 8.419 -18.246 9.193 C-20.135 10.186 -22.065 11.1 -24 12 C-24.66 11.67 -25.32 11.34 -26 11 C-24.688 9.5 -24.688 9.5 -23 8 C-22.01 8 -21.02 8 -20 8 C-20 7.34 -20 6.68 -20 6 C-18.845 5.835 -18.845 5.835 -13 5 C-13 4.34 -13 3.68 -13 3 C-11.59 2.298 -10.172 1.614 -8.75 0.938 C-7.961 0.555 -7.172 0.172 -6.359 -0.223 C-3.69 -1.102 -2.627 -0.778 0 0 Z " fill="#E7C245" transform="translate(302,134)"/>
<path d="M0 0 C-3.963 4.282 -8.664 6.833 -14.5 7.25 C-15.325 7.168 -16.15 7.085 -17 7 C-17 6.01 -17 5.02 -17 4 C-15.845 3.835 -15.845 3.835 -10 3 C-10 2.34 -10 1.68 -10 1 C-6.62 -0.04 -3.522 -0.08 0 0 Z " fill="#EDC743" transform="translate(194,68)"/>
<path d="M0 0 C4.738 1.443 8.989 3.372 13.375 5.625 C14.016 5.95 14.656 6.275 15.316 6.609 C16.879 7.403 18.44 8.201 20 9 C17.33 10.335 15.962 9.779 13.062 9.188 C12.187 9.016 11.312 8.845 10.41 8.668 C8 8 8 8 5 6 C4.67 5.01 4.34 4.02 4 3 C1.938 2.312 1.938 2.312 0 2 C0 1.34 0 0.68 0 0 Z " fill="#DDBC57" transform="translate(80,183)"/>
<path d="M0 0 C6.164 1.697 11.22 4.175 16.625 7.57 C19.655 9.394 22.711 10.713 26 12 C22.621 13.126 22.271 12.963 19.207 11.566 C18.495 11.247 17.783 10.928 17.049 10.6 C16.311 10.257 15.573 9.915 14.812 9.562 C14.063 9.224 13.313 8.886 12.541 8.537 C10.69 7.7 8.845 6.851 7 6 C7 5.34 7 4.68 7 4 C6.01 3.835 6.01 3.835 1 3 C0.67 2.01 0.34 1.02 0 0 Z " fill="#DBBA58" transform="translate(28,157)"/>
<path d="M0 0 C0.99 0 1.98 0 3 0 C2.34 2.97 1.68 5.94 1 9 C2.65 8.34 4.3 7.68 6 7 C6 8.65 6 10.3 6 12 C4.68 12 3.36 12 2 12 C2 11.34 2 10.68 2 10 C0.68 10 -0.64 10 -2 10 C-2.33 10.99 -2.66 11.98 -3 13 C-2.885 11.582 -2.757 10.166 -2.625 8.75 C-2.555 7.961 -2.486 7.172 -2.414 6.359 C-1.985 3.914 -1.214 2.152 0 0 Z " fill="#ECBB3B" transform="translate(17,143)"/>
<path d="M0 0 C0 0.66 0 1.32 0 2 C-18.972 10 -18.972 10 -24 10 C-23.67 9.01 -23.34 8.02 -23 7 C-21.145 6.494 -19.283 6.003 -17.402 5.602 C-11.589 4.146 -5.929 0 0 0 Z " fill="#FEF9D4" transform="translate(70,113)"/>
<path d="M0 0 C-2.565 2.565 -4.477 2.54 -8 3 C-8 3.66 -8 4.32 -8 5 C-8.969 5.289 -9.939 5.577 -10.938 5.875 C-14 7 -14 7 -15 9 C-16.65 9 -18.3 9 -20 9 C-19.34 8.67 -18.68 8.34 -18 8 C-17.67 7.01 -17.34 6.02 -17 5 C-12.614 2.046 -5.251 -2.625 0 0 Z " fill="#FDF7CF" transform="translate(259,158)"/>
<path d="M0 0 C-1.455 0.838 -2.914 1.671 -4.375 2.5 C-4.781 2.732 -4.781 2.732 -6.836 3.906 C-9 5 -9 5 -11 5 C-11 5.66 -11 6.32 -11 7 C-11.66 7 -12.32 7 -13 7 C-13.99 10.3 -14.98 13.6 -16 17 C-17.355 12.936 -16.507 10.972 -15 7 C-11.332 2.388 -6.074 -2.025 0 0 Z " fill="#FCF1C6" transform="translate(177,211)"/>
<path d="M0 0 C3.44 0.075 6.077 0.695 9.188 2.25 C9.188 2.58 9.188 2.91 9.188 3.25 C8.796 3.244 8.796 3.244 6.816 3.215 C5.804 3.206 4.793 3.197 3.75 3.188 C3.245 3.182 3.245 3.182 0.691 3.152 C-1.812 3.25 -1.812 3.25 -2.812 4.25 C-3.18 6.578 -3.515 8.912 -3.812 11.25 C-4.803 10.92 -5.793 10.59 -6.812 10.25 C-5.858 0.384 -5.858 0.384 0 0 Z " fill="#E9BE3B" transform="translate(31.8125,145.75)"/>
<path d="M0 0 C-0.188 1.875 -0.188 1.875 -1 4 C-3.062 5.125 -3.062 5.125 -6 6 C-6.325 6.099 -6.325 6.099 -7.969 6.598 C-11.819 7.682 -14.102 8.073 -18 7 C-15.377 5.829 -12.752 4.663 -10.125 3.5 C-9.379 3.166 -8.632 2.832 -7.863 2.488 C-7.148 2.172 -6.432 1.857 -5.695 1.531 C-5.035 1.238 -4.376 0.945 -3.696 0.643 C-2 0 -2 0 0 0 Z " fill="#E9C445" transform="translate(108,100)"/>
<path d="M0 0 C0.545 0.223 1.091 0.446 1.652 0.676 C0.992 0.676 0.332 0.676 -0.348 0.676 C-0.348 1.336 -0.348 1.996 -0.348 2.676 C-10.721 8.416 -10.721 8.416 -16.348 7.676 C-13.581 5.832 -10.796 4.137 -7.91 2.488 C-7.436 2.213 -7.436 2.213 -5.039 0.82 C-2.348 -0.324 -2.348 -0.324 0 0 Z " fill="#FBEDB8" transform="translate(239.34765625,165.32421875)"/>
<path d="M0 0 C5.011 1.432 6.945 3.984 10 8 C6.531 7.542 3.326 7.109 0 6 C-1.188 3.938 -1.188 3.938 -2 2 C-1.34 1.34 -0.68 0.68 0 0 Z " fill="#DCAC30" transform="translate(140,294)"/>
<path d="M0 0 C1.32 0 2.64 0 4 0 C4 0.99 4 1.98 4 3 C4.289 3.124 4.289 3.124 5.75 3.75 C8.3 5.167 10.018 6.876 12 9 C10.23 9.668 10.23 9.668 8 10 C6.113 8.926 6.113 8.926 4.312 7.312 C3.711 6.793 3.109 6.274 2.488 5.738 C0.846 3.82 0.403 2.466 0 0 Z " fill="#D5B752" transform="translate(18,236)"/>
<path d="M0 0 C4.36 1.348 8.313 3.049 12.375 5.125 C13.435 5.664 14.494 6.203 15.586 6.758 C16.383 7.168 17.179 7.578 18 8 C18 8.33 18 8.66 18 9 C11.822 8.382 8.187 7.458 3 4 C3 3.34 3 2.68 3 2 C2.01 1.67 1.02 1.34 0 1 C0 0.67 0 0.34 0 0 Z " fill="#DBBB59" transform="translate(100,193)"/>
<path d="M0 0 C1.32 0.33 2.64 0.66 4 1 C4.33 2.65 4.66 4.3 5 6 C5.66 6 6.32 6 7 6 C8.757 10.504 9.193 14.176 9 19 C8.34 19 7.68 19 7 19 C6.67 15.37 6.34 11.74 6 8 C5.34 8 4.68 8 4 8 C2.68 5.36 1.36 2.72 0 0 Z " fill="#E8C861" transform="translate(342,106)"/>
<path d="M0 0 C5.359 0.462 9.331 1.109 14 4 C14.33 4.495 14.33 4.495 16 7 C9.684 6.597 5.35 4.288 0 1 C0 0.67 0 0.34 0 0 Z " fill="#ECC552" transform="translate(60,160)"/>
<path d="M0 0 C0.66 0.33 1.32 0.66 2 1 C1.381 1.268 0.762 1.536 0.125 1.812 C-2 3 -2 3 -4 6 C-6.461 7.203 -6.461 7.203 -9.375 8.25 C-9.853 8.428 -9.853 8.428 -12.273 9.328 C-15.041 10.01 -16.367 9.973 -19 9 C-17.964 8.518 -16.927 8.036 -15.859 7.539 C-14.49 6.901 -13.12 6.263 -11.75 5.625 C-11.068 5.308 -10.386 4.991 -9.684 4.664 C-9.02 4.355 -8.356 4.045 -7.672 3.727 C-7.031 3.429 -6.389 3.132 -5.729 2.825 C-4.344 2.164 -2.987 1.446 -1.641 0.711 C-1.099 0.476 -0.558 0.242 0 0 Z " fill="#FBEDB6" transform="translate(270,149)"/>
<path d="M0 0 C1.98 0 3.96 0 6 0 C1.156 3.913 -4.081 6.168 -10 8 C-10 7.34 -10 6.68 -10 6 C-3.375 2 -3.375 2 0 2 C0 1.34 0 0.68 0 0 Z " fill="#E9C450" transform="translate(270,146)"/>
<path d="M0 0 C0.66 0 1.32 0 2 0 C1.453 3.375 0.945 5.082 -1 8 C-1.66 8 -2.32 8 -3 8 C-3.124 8.804 -3.248 9.609 -3.375 10.438 C-3.581 11.283 -3.787 12.129 -4 13 C-4.33 13.165 -4.33 13.165 -6 14 C-5.716 12.561 -5.423 11.124 -5.125 9.688 C-4.963 8.887 -4.8 8.086 -4.633 7.262 C-4 5 -4 5 -2 2 C-1.34 2 -0.68 2 0 2 C0 1.34 0 0.68 0 0 Z " fill="#E3BF5E" transform="translate(166,216)"/>
<path d="M0 0 C5.299 1.298 9.345 3.15 14 6 C14 6.66 14 7.32 14 8 C13.01 8 12.02 8 11 8 C11 7.34 11 6.68 11 6 C8.69 6 6.38 6 4 6 C4 5.34 4 4.68 4 4 C3.01 3.67 2.02 3.34 1 3 C0.67 2.01 0.34 1.02 0 0 Z " fill="#DDBE5D" transform="translate(118,202)"/>
<path d="M0 0 C-2.898 2.292 -5.831 4.079 -9.125 5.75 C-9.994 6.199 -10.863 6.647 -11.758 7.109 C-12.498 7.403 -13.238 7.697 -14 8 C-14.66 7.67 -15.32 7.34 -16 7 C-15.34 6.01 -14.68 5.02 -14 4 C-12.68 4 -11.36 4 -10 4 C-10 3.34 -10 2.68 -10 2 C-6.492 0.396 -3.856 -0.22 0 0 Z " fill="#C5A449" transform="translate(264,256)"/>
<path d="M0 0 C-4.95 2.31 -9.9 4.62 -15 7 C-13 2 -13 2 -10.723 0.82 C-9.845 0.591 -8.967 0.361 -8.062 0.125 C-7.187 -0.12 -6.312 -0.365 -5.41 -0.617 C-3 -1 -3 -1 0 0 Z " fill="#E1B843" transform="translate(199,203)"/>
<path d="M0 0 C-4.841 3.062 -8.293 4.534 -14 5 C-14 5.66 -14 6.32 -14 7 C-15.32 6.67 -16.64 6.34 -18 6 C-17.34 6 -16.68 6 -16 6 C-16 5.34 -16 4.68 -16 4 C-15.301 3.723 -14.603 3.446 -13.883 3.16 C-12.973 2.798 -12.063 2.436 -11.125 2.062 C-10.22 1.703 -9.315 1.343 -8.383 0.973 C-3.458 -1.037 -3.458 -1.037 0 0 Z " fill="#E8C858" transform="translate(48,126)"/>
<path d="M0 0 C-0.66 0 -1.32 0 -2 0 C-2 0.66 -2 1.32 -2 2 C-3.98 2.33 -5.96 2.66 -8 3 C-8 3.66 -8 4.32 -8 5 C-10.64 5 -13.28 5 -16 5 C-12.994 1.994 -10.176 2.404 -6 2 C-6 1.34 -6 0.68 -6 0 C-3.509 -1.245 -2.589 -0.777 0 0 Z " fill="#ECCE60" transform="translate(124,95)"/>
<path d="M0 0 C0.66 0.33 1.32 0.66 2 1 C1.01 1.33 0.02 1.66 -1 2 C-2.188 4.062 -2.188 4.062 -3 6 C-5.64 6 -8.28 6 -11 6 C-7.579 3.126 -4.161 1.541 0 0 Z " fill="#F1E3AF" transform="translate(207,282)"/>
<path d="M0 0 C1.32 0 2.64 0 4 0 C4 0.66 4 1.32 4 2 C4.907 2.103 5.815 2.206 6.75 2.312 C10.02 3.004 11.537 3.821 14 6 C6.232 6.67 6.232 6.67 2.5 3.562 C0 1 0 1 0 0 Z " fill="#EEC344" transform="translate(132,193)"/>
<path d="M0 0 C9.173 1.173 9.173 1.173 12.625 4.625 C13.079 5.409 13.532 6.192 14 7 C10.24 6.419 7.47 5.348 4.188 3.438 C3.397 2.982 2.607 2.527 1.793 2.059 C1.201 1.709 0.61 1.36 0 1 C0 0.67 0 0.34 0 0 Z " fill="#F9ECBC" transform="translate(56,170)"/>
<path d="M0 0 C0 0.66 0 1.32 0 2 C-6.75 6 -6.75 6 -9 6 C-9 6.66 -9 7.32 -9 8 C-10.65 8.33 -12.3 8.66 -14 9 C-13.67 8.34 -13.34 7.68 -13 7 C-12.34 7 -11.68 7 -11 7 C-11 6.34 -11 5.68 -11 5 C-2.29 0 -2.29 0 0 0 Z " fill="#FCF2C4" transform="translate(265,163)"/>
<path d="M0 0 C3.68 0.354 6.062 1.491 9.25 3.312 C6.752 4.562 5.494 4.236 2.75 3.875 C-1.636 3.312 -1.636 3.312 -3.75 3.312 C-3.42 5.292 -3.09 7.273 -2.75 9.312 C-3.41 9.312 -4.07 9.312 -4.75 9.312 C-4.875 5.938 -4.875 5.938 -4.75 2.312 C-2.75 0.312 -2.75 0.312 0 0 Z " fill="#F8E296" transform="translate(32.75,147.6875)"/>
<path d="M0 0 C-0.66 0 -1.32 0 -2 0 C-2 1.32 -2 2.64 -2 4 C-10.036 6.277 -10.036 6.277 -14 5 C-12.236 3.967 -10.464 2.949 -8.688 1.938 C-7.701 1.369 -6.715 0.801 -5.699 0.215 C-3 -1 -3 -1 0 0 Z " fill="#EBC951" transform="translate(62,119)"/>
<path d="M0 0 C4.74 1.835 9.364 3.919 14 6 C11.099 7.45 9.44 6.454 6.375 5.562 C5.372 5.275 4.369 4.988 3.336 4.691 C2.951 4.577 2.951 4.577 1 4 C0.67 2.68 0.34 1.36 0 0 Z " fill="#ECCC64" transform="translate(315,92)"/>
<path d="M0 0 C0.66 0.33 1.32 0.66 2 1 C-1.011 4.475 -3.507 5.97 -8 7 C-10.188 6.543 -10.188 6.543 -12 6 C-10.047 4.97 -8.087 3.951 -6.125 2.938 C-5.034 2.369 -3.944 1.801 -2.82 1.215 C-2.355 1.014 -2.355 1.014 0 0 Z " fill="#E5C565" transform="translate(268,163)"/>
<path d="M0 0 C-1.33 2.66 -2.689 2.984 -5.375 4.188 C-6.166 4.552 -6.958 4.917 -7.773 5.293 C-10 6 -10 6 -13 5 C-8.55 1.272 -5.826 -0.157 0 0 Z " fill="#F8EFC8" transform="translate(219,279)"/>
<path d="M0 0 C-1.32 0.33 -2.64 0.66 -4 1 C-4 1.66 -4 2.32 -4 3 C-7.96 3.99 -11.92 4.98 -16 6 C-14.556 3.113 -12.586 2.652 -9.688 1.312 C-8.722 0.855 -7.756 0.397 -6.762 -0.074 C-3.901 -1.033 -2.757 -1.081 0 0 Z " fill="#F1DFAA" transform="translate(282,250)"/>
<path d="M0 0 C0.302 0.102 0.302 0.102 1.828 0.621 C2.228 0.756 2.228 0.756 4.25 1.438 C5.039 1.704 5.828 1.971 6.641 2.246 C8.748 2.92 10.848 3.492 13 4 C13 4.66 13 5.32 13 6 C8.731 5.498 4.832 5.029 1 3 C0.67 2.01 0.34 1.02 0 0 Z " fill="#FEFAD6" transform="translate(319,92)"/>
<path d="M0 0 C1.65 0 3.3 0 5 0 C1.533 2.774 -2.064 4.959 -6 7 C-6.66 6.67 -7.32 6.34 -8 6 C-7.67 5.01 -7.34 4.02 -7 3 C-5.845 2.835 -5.845 2.835 0 2 C0 1.34 0 0.68 0 0 Z " fill="#C5A249" transform="translate(297,238)"/>
<path d="M0 0 C0.99 0.33 1.98 0.66 3 1 C1.546 2.172 0.087 3.338 -1.375 4.5 C-2.187 5.15 -2.999 5.799 -3.836 6.469 C-6 8 -6 8 -8 8 C-8 7.34 -8 6.68 -8 6 C-7.34 6 -6.68 6 -6 6 C-6 5.34 -6 4.68 -6 4 C-3.188 1.812 -3.188 1.812 0 0 Z " fill="#C1A143" transform="translate(342,213)"/>
<path d="M0 0 C-1.6 0.841 -3.205 1.672 -4.812 2.5 C-5.259 2.732 -5.259 2.732 -7.52 3.906 C-10 5 -10 5 -13 5 C-13 4.01 -13 3.02 -13 2 C-11.588 1.466 -10.17 0.948 -8.75 0.438 C-7.961 0.147 -7.172 -0.143 -6.359 -0.441 C-3.809 -1.045 -2.447 -0.847 0 0 Z " fill="#EAC232" transform="translate(73,117)"/>
<path d="M0 0 C1.648 0.449 3.294 0.909 4.938 1.375 C5.854 1.63 6.771 1.885 7.715 2.148 C10 3 10 3 11 5 C7.713 5.8 6.29 6.097 3 5 C3 4.01 3 3.02 3 2 C2.01 1.67 1.02 1.34 0 1 C0 0.67 0 0.34 0 0 Z " fill="#F4E8B2" transform="translate(91,278)"/>
<path d="M0 0 C4.609 0.72 8.672 2.313 13 4 C13 4.99 13 5.98 13 7 C11.333 6.333 11.333 6.333 3 3 C3 2.34 3 1.68 3 1 C2.01 0.67 1.02 0.34 0 0 Z " fill="#D8BB5D" transform="translate(78,271)"/>
<path d="M0 0 C0.66 0.33 1.32 0.66 2 1 C2.188 4.375 2.188 4.375 2 8 C1.01 8.66 0.02 9.32 -1 10 C-1.99 9.67 -2.98 9.34 -4 9 C-3.34 9 -2.68 9 -2 9 C-2 7.68 -2 6.36 -2 5 C-1.34 4.67 -0.68 4.34 0 4 C0 2.68 0 1.36 0 0 Z " fill="#F8EDAD" transform="translate(332,122)"/>
<path d="M0 0 C4.827 1.413 8.716 3.43 13 6 C10.345 7.017 9.308 7.13 6.641 6.004 C5.852 5.528 5.063 5.053 4.25 4.562 C3.451 4.089 2.652 3.616 1.828 3.129 C1.225 2.756 0.622 2.384 0 2 C0 1.34 0 0.68 0 0 Z " fill="#E5C250" transform="translate(329,99)"/>
<path d="M0 0 C5.023 1.182 8.095 2.45 12 6 C7.543 5.738 5.485 5.423 2.062 2.438 C1.382 1.633 0.701 0.829 0 0 Z " fill="#E9CA61" transform="translate(286,80)"/>
<path d="M0 0 C5.261 -0.316 8.446 0.334 13 3 C13 3.33 13 3.66 13 4 C9.625 4.125 9.625 4.125 6 4 C5.34 3.34 4.68 2.68 4 2 C2.683 1.303 1.351 0.63 0 0 Z " fill="#FCF3CF" transform="translate(107,288)"/>
<path d="M0 0 C1.462 0.424 2.92 0.865 4.375 1.312 C5.187 1.556 5.999 1.8 6.836 2.051 C9 3 9 3 11 6 C9.538 5.771 8.08 5.516 6.625 5.25 C6.219 5.18 6.219 5.18 4.164 4.828 C2 4 2 4 0.711 1.922 C0.476 1.288 0.242 0.653 0 0 Z " fill="#D4AC34" transform="translate(28,243)"/>
<path d="M0 0 C1.903 2.855 2.462 4.419 3.125 7.688 C3.293 8.496 3.46 9.304 3.633 10.137 C3.754 10.752 3.875 11.366 4 12 C3.01 12 2.02 12 1 12 C0.039 9.118 -0.106 7.301 -0.062 4.312 C-0.053 3.504 -0.044 2.696 -0.035 1.863 C-0.024 1.248 -0.012 0.634 0 0 Z " fill="#F7E7B6" transform="translate(13,223)"/>
<path d="M0 0 C5.75 1.875 5.75 1.875 8 3 C8.625 5.062 8.625 5.062 9 7 C7.35 7 5.7 7 4 7 C4.33 5.68 4.66 4.36 5 3 C3.68 3 2.36 3 1 3 C0.67 2.01 0.34 1.02 0 0 Z " fill="#DAB546" transform="translate(54,170)"/>
<path d="M0 0 C-1.622 0.838 -3.248 1.67 -4.875 2.5 C-5.327 2.732 -5.327 2.732 -7.617 3.906 C-10 5 -10 5 -12 5 C-12 4.01 -12 3.02 -12 2 C-11.051 1.691 -10.102 1.381 -9.125 1.062 C-3.188 -0.956 -3.188 -0.956 0 0 Z " fill="#E2B638" transform="translate(238,183)"/>
<path d="M0 0 C3.63 1.98 7.26 3.96 11 6 C8 7 8 7 4.375 5.812 C3.261 5.214 2.148 4.616 1 4 C0.67 2.68 0.34 1.36 0 0 Z " fill="#FEF9DA" transform="translate(50,164)"/>
<path d="M0 0 C3.63 0 7.26 0 11 0 C11 2.64 11 5.28 11 8 C10.67 8 10.34 8 10 8 C9.34 6.02 8.68 4.04 8 2 C5.36 2 2.72 2 0 2 C0 1.34 0 0.68 0 0 Z " fill="#EBC750" transform="translate(324,120)"/>
<path d="M0 0 C4.219 0.479 6.797 1.166 10 4 C3.375 4.25 3.375 4.25 0 2 C0 1.34 0 0.68 0 0 Z " fill="#D5B24A" transform="translate(72,267)"/>
<path d="M0 0 C-1.65 0.825 -1.65 0.825 -10 5 C-10 4.01 -10 3.02 -10 2 C-8.712 1.47 -7.42 0.951 -6.125 0.438 C-5.406 0.147 -4.686 -0.143 -3.945 -0.441 C-2 -1 -2 -1 0 0 Z " fill="#FEFAD5" transform="translate(195,190)"/>
<path d="M0 0 C0.66 0.33 1.32 0.66 2 1 C-0.238 4.357 -1.219 4.92 -5 6 C-7.164 5.547 -7.164 5.547 -9 5 C-8.434 4.723 -7.868 4.446 -7.285 4.16 C-6.552 3.798 -5.818 3.436 -5.062 3.062 C-4.697 2.883 -4.697 2.883 -2.848 1.973 C-1 1 -1 1 0 0 Z " fill="#E6C665" transform="translate(199,198)"/>
<path d="M0 0 C3.735 0.498 5.812 0.875 9 3 C8.67 3.66 8.34 4.32 8 5 C4.562 4.188 4.562 4.188 1 3 C0.67 2.01 0.34 1.02 0 0 Z " fill="#D7AF34" transform="translate(94,192)"/>
<path d="M0 0 C1.438 0.142 2.875 0.289 4.312 0.438 C5.113 0.519 5.914 0.6 6.738 0.684 C9 1 9 1 12 2 C12 2.99 12 3.98 12 5 C11.319 4.711 10.639 4.423 9.938 4.125 C6.671 2.874 3.372 1.926 0 1 C0 0.67 0 0.34 0 0 Z " fill="#FEF9D6" transform="translate(31,150)"/>
<path d="M0 0 C0.66 0.33 1.32 0.66 2 1 C1.67 1.99 1.34 2.98 1 4 C-1.64 4.33 -4.28 4.66 -7 5 C-4.703 3.257 -2.401 1.601 0 0 Z " fill="#F1E5B3" transform="translate(321,228)"/>
<path d="M0 0 C6.523 0.492 6.523 0.492 8.938 3.062 C9.288 3.702 9.639 4.341 10 5 C6.088 3.844 3.125 2.645 0 0 Z " fill="#FBF1C5" transform="translate(102,193)"/>
<path d="M0 0 C0.66 0.33 1.32 0.66 2 1 C1.67 1.66 1.34 2.32 1 3 C0.34 3 -0.32 3 -1 3 C-1 3.66 -1 4.32 -1 5 C-2.98 5 -4.96 5 -7 5 C-5.471 1.941 -3.058 1.31 0 0 Z " fill="#EACB6D" transform="translate(321,135)"/>
<path d="M0 0 C-1.29 0.504 -2.582 1.003 -3.875 1.5 C-4.235 1.639 -4.235 1.639 -6.055 2.344 C-8 3 -8 3 -10 3 C-10 2.01 -10 1.02 -10 0 C-2.25 -1.125 -2.25 -1.125 0 0 Z " fill="#FBECB1" transform="translate(52,123)"/>
<path d="M0 0 C-0.33 0.99 -0.66 1.98 -1 3 C-4.3 3.66 -7.6 4.32 -11 5 C-9.71 2.42 -8.729 2.33 -6.062 1.375 C-5.352 1.115 -4.642 0.854 -3.91 0.586 C-2 0 -2 0 0 0 Z " fill="#FFF9D9" transform="translate(114,95)"/>
<path d="M0 0 C0.66 0.33 1.32 0.66 2 1 C2 3.64 2 6.28 2 9 C0.223 6.334 -0.875 3.972 -2 1 C-1.34 0.67 -0.68 0.34 0 0 Z " fill="#FCF5C4" transform="translate(146,216)"/>
<path d="M0 0 C0.66 0.33 1.32 0.66 2 1 C1.67 1.495 1.67 1.495 0 4 C-3.625 4.688 -3.625 4.688 -7 5 C-4.637 2.474 -3.335 1.112 0 0 Z " fill="#E6CC6F" transform="translate(184,206)"/>
<path d="M0 0 C0.33 0 0.66 0 1 0 C1.125 5.75 1.125 5.75 0 8 C-0.99 8 -1.98 8 -3 8 C-1.125 2.25 -1.125 2.25 0 0 Z " fill="#F7EBC0" transform="translate(350,204)"/>
<path d="M0 0 C0.66 0.33 1.32 0.66 2 1 C-1.323 4.938 -1.323 4.938 -4.75 5.25 C-5.493 5.167 -6.235 5.085 -7 5 C-4.703 3.257 -2.401 1.601 0 0 Z " fill="#FBEDB9" transform="translate(183,192)"/>
<path d="M0 0 C3.083 1.199 6.063 2.477 9 4 C6 5 6 5 3.375 4.25 C1 3 1 3 0 0 Z " fill="#FAEDB5" transform="translate(94,177)"/>
<path d="M0 0 C-0.33 0.99 -0.66 1.98 -1 3 C-3.64 3.33 -6.28 3.66 -9 4 C-7.046 0.091 -4.134 0 0 0 Z " fill="#FEFCE3" transform="translate(276,149)"/>
<path d="M0 0 C-2.36 2.097 -3.546 2.969 -6.75 3.188 C-7.121 3.157 -7.121 3.157 -9 3 C-6.382 -0.01 -3.867 -1.933 0 0 Z " fill="#F1C22D" transform="translate(54,125)"/>
<path d="M0 0 C-6 4 -6 4 -10 4 C-10 3.34 -10 2.68 -10 2 C-6.492 0.396 -3.856 -0.22 0 0 Z " fill="#FDFADC" transform="translate(174,300)"/>
<path d="M0 0 C2.799 2.528 4.458 4.204 5 8 C3.062 7.375 3.062 7.375 1 6 C0.25 2.875 0.25 2.875 0 0 Z " fill="#FEF7D6" transform="translate(15,234)"/>
<path d="M0 0 C2.64 0.33 5.28 0.66 8 1 C8.33 1.99 8.66 2.98 9 4 C5.656 3.443 2.967 2.648 0 1 C0 0.67 0 0.34 0 0 Z " fill="#F8ECBD" transform="translate(42,163)"/>
<path d="M0 0 C1.482 0.449 2.961 0.91 4.438 1.375 C5.261 1.63 6.085 1.885 6.934 2.148 C9 3 9 3 10 5 C8.518 4.746 7.039 4.471 5.562 4.188 C4.739 4.037 3.915 3.886 3.066 3.73 C2.384 3.489 1.703 3.248 1 3 C0.67 2.01 0.34 1.02 0 0 Z " fill="#E2C15D" transform="translate(28,157)"/>
<path d="M0 0 C0 0.66 0 1.32 0 2 C-1.965 3.068 -3.969 4.066 -6 5 C-6.66 4.67 -7.32 4.34 -8 4 C-5.574 1.343 -3.761 0 0 0 Z " fill="#E6B73B" transform="translate(298,150)"/>
<path d="M0 0 C-1.289 0.672 -2.581 1.337 -3.875 2 C-4.594 2.371 -5.314 2.743 -6.055 3.125 C-8 4 -8 4 -10 4 C-10 3.34 -10 2.68 -10 2 C-3.375 -1.125 -3.375 -1.125 0 0 Z " fill="#EAC052" transform="translate(312,129)"/>
<path d="M0 0 C-3.203 2.834 -5.781 3.521 -10 4 C-10 3.34 -10 2.68 -10 2 C-6.492 0.396 -3.856 -0.22 0 0 Z " fill="#FCEDAA" transform="translate(94,105)"/>
<path d="M0 0 C0.66 0 1.32 0 2 0 C2 0.66 2 1.32 2 2 C1.34 2 0.68 2 0 2 C0 1.34 0 0.68 0 0 Z " fill="#FBFFEE" transform="translate(108,92)"/>
<path d="M0 0 C2 1 2 1 2 1 Z " fill="#FCFFEF" transform="translate(309,83)"/>
<path d="" fill="#F4FFF0" transform="translate(0,0)"/>
</svg>
